<svg xmlns="http://www.w3.org/2000/svg" xmlns:xlink="http://www.w3.org/1999/xlink" xmlns:lucid="lucid" width="5930" height="3724"><g transform="translate(-4485 -1631)" lucid:page-tab-id="0_0"><path d="M0-1258.84h10905.2V11393.5H0z" fill="#fff"/><path d="M7074.23 3284.66l-4 3-344.55-461.1h6.24zm-376.2-503.45h-6.23l-342.3-458.1 4-3z" stroke="#333" stroke-width=".05" fill="#333"/><path d="M6353.54 2320.16l-4 3-2.66-3.56h6.24z" fill="#333"/><path d="M6353.57 2320.17l-4.04 3.02-2.7-3.62h6.3zm-6.64-.54l2.6 3.5 3.97-2.97-.4-.53z" stroke="#333" stroke-width=".05" fill="#333"/><path d="M7076.84 3288.16h-6.24l-.42-.56 4-3z" fill="#333"/><path d="M7076.9 3288.18h-6.3l-.45-.58 4.04-3.03zm-6.68-.57l.4.53h6.17l-2.62-3.5z" stroke="#333" stroke-width=".05" fill="#333"/><use xlink:href="#a" transform="matrix(1,0,0,1,6610.280055209958,2781.2142023134743) translate(0 30.222222222222214)"/><path d="M6929 3370.72l-4 3-226-299.1h6.26zm-258-341.45h-6.26L6441 2733.17l4-3.02z" stroke="#333" stroke-width=".05" fill="#333"/><path d="M6445.04 2730.2l-3.54 2.67v-6.97l.2-.14z" fill="#333"/><path d="M6445.07 2730.2l-3.6 2.72v-7.03l.22-.18zm-3.55-4.3v6.92l3.48-2.63-3.32-4.4z" stroke="#333" stroke-width=".05" fill="#333"/><path d="M6928.5 3377.98l-.2.14-3.34-4.44 3.54-2.67z" fill="#333"/><path d="M6928.52 3378l-.2.16-3.4-4.48 3.6-2.72zm-3.53-4.32l3.32 4.4.16-.1v-6.92z" stroke="#333" stroke-width=".05" fill="#333"/><use xlink:href="#a" transform="matrix(1,0,0,1,6583.419739216242,3029.2722833400685) translate(0 30.222222222222214)"/><path d="M6927.42 3456.3l-2.3 4.44-201.44-103.4 10.95-.02zm-281.1-144.3h-10.95l-192.8-98.97 2.3-4.45z" stroke="#333" stroke-width=".05" fill="#333"/><path d="M6444.92 3208.6l-2.28 4.45-1.14-.58v-5.62z" fill="#333"/><path d="M6444.96 3208.6l-2.3 4.5-1.18-.62v-5.67zm-3.44 3.85l1.1.57 2.27-4.4-3.38-1.73z" stroke="#333" stroke-width=".05" fill="#333"/><path d="M6928.5 3456.85v5.62l-3.42-1.76 2.28-4.44z" fill="#333"/><path d="M6928.52 3456.83v5.68l-3.48-1.78 2.3-4.5zm-3.4 3.87l3.36 1.73v-5.57l-1.1-.56z" stroke="#333" stroke-width=".05" fill="#333"/><use xlink:href="#a" transform="matrix(1,0,0,1,6583.419753746794,3311.992108705052) translate(0 30.222222222222214)"/><path d="M6444.6 3691.34l-1.4-4.8 156.65-46.5h17.57zm482.2-143.13l-156.65 46.5h-17.57l172.8-51.3z" stroke="#333" stroke-width=".05" fill="#333"/><path d="M6444.67 3691.33l-3.17.94v-5.22l1.75-.52z" fill="#333"/><path d="M6444.7 3691.34l-3.22.96v-5.27l1.78-.53zm-3.18-4.27v5.16l3.12-.92-1.4-4.74z" stroke="#333" stroke-width=".05" fill="#333"/><path d="M6928.5 3547.7l-1.75.53-1.42-4.8 3.17-.94z" fill="#333"/><path d="M6928.52 3547.72l-1.78.54-1.44-4.85 3.22-.94zm-3.16-4.27l1.4 4.74 1.72-.5v-5.18z" stroke="#333" stroke-width=".05" fill="#333"/><use xlink:href="#a" transform="matrix(1,0,0,1,6583.419768277345,3594.7119255521266) translate(0 30.222222222222214)"/><path d="M6425.03 4169.46l-3.73-3.33 230.1-257.47h6.7zm503.67-563.6l-230.1 257.46h-6.7l233.07-260.8z" stroke="#333" stroke-width=".05" fill="#333"/><path d="M6425.07 4169.4l-3.57 4v-7.18z" fill="#333"/><path d="M6425.1 4169.4l-3.63 4.08v-7.32zm-3.58 3.95l3.52-3.94-3.52-3.12z" stroke="#333" stroke-width=".05" fill="#333"/><path d="M6928.5 3605.76l-3.57-3.2 3.57-4z" fill="#333"/><path d="M6928.52 3605.8l-3.63-3.24 3.63-4.06zm-3.56-3.24l3.52 3.14v-7.07z" stroke="#333" stroke-width=".05" fill="#333"/><use xlink:href="#a" transform="matrix(1,0,0,1,6573.419778008468,3863.32142857193) translate(0 30.222222222222214)"/><path d="M6353.5 4517.94l-4.06-2.93 301.9-417.5h6.16zm638.66-883.3l-301.9 417.52h-6.16l304-420.44z" stroke="#333" stroke-width=".05" fill="#333"/><path d="M6353.53 4517.9l-.44.6h-6.2l2.58-3.54z" fill="#333"/><path d="M6353.56 4517.88l-.46.64h-6.23l2.6-3.6zm-6.6.6h6.1l.43-.6-4.02-2.9z" stroke="#333" stroke-width=".05" fill="#333"/><path d="M6992.12 3634.7l-4.05-2.93.45-.6h6.16z" fill="#333"/><path d="M6992.13 3634.74l-4.1-2.96.47-.65h6.23zm-3.6-3.56l-.42.6 4.02 2.9 2.52-3.5z" stroke="#333" stroke-width=".05" fill="#333"/><use xlink:href="#a" transform="matrix(1,0,0,1,6569.219752855329,4052.162725340025) translate(0 30.222222222222214)"/><path d="M5013.52 3038.45l-3.23-3.8 493.4-418.85h7.7zm1044.7-886.82l-493.4 418.83h-7.73l497.88-422.64z" stroke="#333" stroke-width=".05" fill="#333"/><path d="M6058.5 2151.38l-.34.3-3.23-3.82 3.57-3.04z" fill="#333"/><path d="M6058.52 2151.4l-.36.3-3.27-3.85 3.63-3.08zm-3.56-3.54l3.2 3.77.32-.26v-6.5z" stroke="#333" stroke-width=".05" fill="#333"/><path d="M5013.36 3038.16h-7.22l4.2-3.57z" fill="#333"/><path d="M5013.42 3038.18h-7.35l4.27-3.62zm-7.22-.05h7.1l-2.97-3.5z" stroke="#333" stroke-width=".05" fill="#333"/><use xlink:href="#b" transform="matrix(1,0,0,1,5482.987676429831,2570.4642086956696) translate(0 30.222222222222214)"/><path d="M5456.13 2906.57h5.88l-302.43 132.87-2-4.58 298.56-131.16zm401.1-173.62l-298.58 131.17v-2.88h-5.88l302.44-132.86z" stroke="#333" stroke-width=".05" fill="#333"/><path d="M5858.5 2732.4l-1.34.58-2-4.58 3.34-1.47z" fill="#333"/><path d="M5858.52 2732.4l-1.38.6-2.03-4.6 3.42-1.5zm-3.34-4l2 4.55 1.3-.58v-5.4z" stroke="#333" stroke-width=".05" fill="#333"/><path d="M5159.08 3038.16H5153l-.47-1.08 5.1-2.24z" fill="#333"/><path d="M5159.12 3038.18H5153l-.5-1.12 5.13-2.25zm-6.56-1.1l.46 1.05h6.02l-1.43-3.26z" stroke="#333" stroke-width=".05" fill="#333"/><use xlink:href="#b" transform="matrix(1,0,0,1,5456.1273797498225,2861.2421117092003) translate(0 30.222222222222214)"/><path d="M5856.4 3206.8l-.75 4.95-224.4-34.42v-5.06zm-327.66-50.25v5.05l-225.15-34.53.75-4.94z" stroke="#333" stroke-width=".05" fill="#333"/><path d="M5858.5 3207.13v5.06l-2.9-.46.74-4.94z" fill="#333"/><path d="M5858.52 3207.1v5.12l-2.96-.46.76-5zm-2.9 4.62l2.86.44v-5l-2.1-.33z" stroke="#333" stroke-width=".05" fill="#333"/><path d="M5304.4 3122.14l-.74 4.94-2.16-.33v-5.06z" fill="#333"/><path d="M5304.44 3122.12l-.76 5-2.2-.35v-5.1zm-2.9 4.6l2.1.33.74-4.9-2.86-.43z" stroke="#333" stroke-width=".05" fill="#333"/><use xlink:href="#b" transform="matrix(1,0,0,1,5528.737640106775,3144.2722917652586) translate(0 30.222222222222214)"/><path d="M5857.9 3686.17l-2.88 4.08-247.35-175.2h8.65zm-305.57-216.46h-8.65l-241.6-171.12 2.9-4.08z" stroke="#333" stroke-width=".05" fill="#333"/><path d="M5858.5 3686.6v6.12l-3.54-2.5 2.9-4.08z" fill="#333"/><path d="M5858.52 3686.58v6.2l-3.6-2.56 2.93-4.12zm-3.52 3.63l3.48 2.47v-6.06l-.62-.43z" stroke="#333" stroke-width=".05" fill="#333"/><path d="M5305.04 3294.54l-2.9 4.08-.64-.46v-6.13z" fill="#333"/><path d="M5305.07 3294.53l-2.92 4.13-.67-.48v-6.2zm-3.55 3.62l.62.44 2.86-4.05-3.48-2.47z" stroke="#333" stroke-width=".05" fill="#333"/><use xlink:href="#b" transform="matrix(1,0,0,1,5528.737669855954,3469.711934364433) translate(0 30.222222222222214)"/><path d="M5838.76 4166.13l-3.8 3.27-321.27-371.32h6.6zm-357.68-413.4h-6.6l-318.45-368.05 3.78-3.27z" stroke="#333" stroke-width=".05" fill="#333"/><path d="M5838.5 4173.48l-3.57-4.13 3.57-3.08z" fill="#333"/><path d="M5838.52 4173.55l-3.62-4.2 3.63-3.14zm-3.55-4.2l3.5 4.06v-7.08z" stroke="#333" stroke-width=".05" fill="#333"/><path d="M5159.85 3381.46l-3.78 3.27-3.1-3.57h6.6z" fill="#333"/><path d="M5159.88 3381.47l-3.82 3.3-3.14-3.64h6.68zm-6.85-.3l3.04 3.53 3.74-3.24-.23-.28z" stroke="#333" stroke-width=".05" fill="#333"/><use xlink:href="#b" transform="matrix(1,0,0,1,5446.127369941296,3752.7420942012527) translate(0 30.222222222222214)"/><path d="M6058.9 4686.5l-3.9 3.1-505.8-631.35h6.4zm-539.6-673.6h-6.4l-503.3-628.23 3.9-3.12z" stroke="#333" stroke-width=".05" fill="#333"/><path d="M6058.5 4693.84l-3.55-4.28 3.55-2.85z" fill="#333"/><path d="M6058.52 4693.9l-3.6-4.34 3.6-2.9zm-3.54-4.34l3.5 4.2v-7z" stroke="#333" stroke-width=".05" fill="#333"/><path d="M5013.55 3381.6l-3.9 3.12-2.85-3.56h6.4z" fill="#333"/><path d="M5013.6 3381.6l-3.95 3.16-2.9-3.63h6.47zm-6.75-.42l2.8 3.5 3.87-3.1-.33-.4z" stroke="#333" stroke-width=".05" fill="#333"/><use xlink:href="#b" transform="matrix(1,0,0,1,5482.987676429831,4012.912711446162) translate(0 30.222222222222214)"/><path d="M6060 4560a12.8 12.8 0 0 1 4.6-9.84l31.6-26.32a16.57 16.57 0 0 1 10.6-3.84H6634a6 6 0 0 1 6 6v287.2a16.57 16.57 0 0 1-3.84 10.6l-26.32 31.6a12.8 12.8 0 0 1-9.84 4.6h-534a6 6 0 0 1-6-6z" stroke="#333" stroke-width="3" fill="#fff"/><path d="M6066 4554a2.17 2.17 0 0 1-1.4-3.84l31.6-26.32a16.57 16.57 0 0 1 10.6-3.84H6634a2.48 2.48 0 0 1 1.76 4.24l-25.52 25.52A14.48 14.48 0 0 1 6600 4554z" stroke="#333" stroke-width="3" fill="#e6e6e6"/><path d="M6606 4560a14.48 14.48 0 0 1 4.24-10.24l25.52-25.52a2.48 2.48 0 0 1 4.24 1.76v287.2a16.57 16.57 0 0 1-3.84 10.6l-26.32 31.6a2.17 2.17 0 0 1-3.84-1.4z" stroke="#333" stroke-width="3" fill="#ccc"/><path d="M6160 4625.25h360v140h-360z" stroke="#333" stroke-width="3" fill="#fff"/><path d="M6510 4635.25h-15v20h15z" stroke="#333" fill="#fff"/><path d="M6500 4638.59l-10-.02v3.34h10zm0 9.98h-10v3.34h10z" stroke="#333" fill="#fff"/><use xlink:href="#c" transform="matrix(1,0,0,1,6160,4625.25213127754) translate(83.00500000000004 56.33333333333333)"/><use xlink:href="#d" transform="matrix(1,0,0,1,6160,4625.25213127754) translate(38.10376543209879 91.88888888888889)"/><path d="M6060 2018.1a12.8 12.8 0 0 1 4.6-9.84l31.6-26.32a16.57 16.57 0 0 1 10.6-3.84H6634a6 6 0 0 1 6 6v287.2a16.57 16.57 0 0 1-3.84 10.6l-26.32 31.6a12.8 12.8 0 0 1-9.84 4.6h-534a6 6 0 0 1-6-6z" stroke="#333" stroke-width="3" fill="#fff"/><path d="M6066 2012.1a2.17 2.17 0 0 1-1.4-3.84l31.6-26.32a16.57 16.57 0 0 1 10.6-3.84H6634a2.48 2.48 0 0 1 1.76 4.25l-25.52 25.5a14.48 14.48 0 0 1-10.24 4.25z" stroke="#333" stroke-width="3" fill="#e6e6e6"/><path d="M6606 2018.1a14.48 14.48 0 0 1 4.24-10.24l25.52-25.5a2.48 2.48 0 0 1 4.24 1.74v287.2a16.57 16.57 0 0 1-3.84 10.6l-26.32 31.6a2.17 2.17 0 0 1-3.84-1.4z" stroke="#333" stroke-width="3" fill="#ccc"/><path d="M6140 2078.1h360v140h-360z" stroke="#333" stroke-width="3" fill="#fff"/><path d="M6490 2088.1h-15v20h15z" stroke="#333" fill="#fff"/><path d="M6480 2091.44h-10v3.33h10zm0 10h-10v3.33h10z" stroke="#333" fill="#fff"/><use xlink:href="#c" transform="matrix(1,0,0,1,6140,2078.102962962963) translate(83.00500000000004 56.33333333333333)"/><use xlink:href="#e" transform="matrix(1,0,0,1,6140,2078.102962962963) translate(12.869197530864236 91.88888888888889)"/><path d="M7369.76 3287.55l-4.1-2.87 283.5-403.4 6.1-.02zm600.85-855.03l-283.48 403.4h-6.1l285.5-406.27z" stroke="#333" stroke-width=".05" fill="#333"/><path d="M7970.57 2432.57l-4.1-2.87.47-.66h6.12z" fill="#333"/><path d="M7970.58 2432.6l-4.14-2.9.5-.7h6.16zm-3.62-3.54l-.44.63 4.04 2.84 2.45-3.48z" stroke="#333" stroke-width=".05" fill="#333"/><path d="M7369.8 3287.5l-.47.66h-6.1l2.48-3.54z" fill="#333"/><path d="M7369.83 3287.5l-.48.68h-6.17l2.52-3.6zm-6.56.63h6.05l.44-.63-4.05-2.84z" stroke="#333" stroke-width=".05" fill="#333"/><use xlink:href="#f" transform="matrix(1,0,0,1,7611.5779749249305,2835.9317420350485) translate(0 30.222222222222214)"/><path d="M7514.96 3373.5l-4.17-2.74 106.26-161.15h6zm244.25-370.38l-106.26 161.15h-6l108.1-163.9z" stroke="#333" stroke-width=".05" fill="#333"/><path d="M7758.5 2996.07v6.66l-3.5-2.3 3.06-4.65z" fill="#333"/><path d="M7758.52 2996.05v6.73l-3.55-2.35 3.1-4.7zm-3.48 4.37l3.44 2.26v-6.6l-.4-.27z" stroke="#333" stroke-width=".05" fill="#333"/><path d="M7515 3373.45l-3.06 4.65-.44-.3v-6.65z" fill="#333"/><path d="M7515.03 3373.45l-3.1 4.7-.45-.32v-6.73zm-3.5 4.35l.4.26 3.03-4.6-3.44-2.27z" stroke="#333" stroke-width=".05" fill="#333"/><use xlink:href="#f" transform="matrix(1,0,0,1,7578.438257390726,3164.2722917652586) translate(0 30.222222222222214)"/><path d="M7567.47 3440.3h3.02l-55.78 20.83-1.75-4.7 54.5-20.34zm167.62-61.5l-54.5 20.37v-4.2h-3.03l55.77-20.84z" stroke="#333" stroke-width=".05" fill="#333"/><path d="M7736.56 3378.26l-1.53.57-1.75-4.68 3.28-1.22z" fill="#333"/><path d="M7736.58 3378.28l-1.57.6-1.75-4.74 3.33-1.25zm-3.27-4.12l1.74 4.64 1.5-.55v-5.3z" stroke="#333" stroke-width=".05" fill="#333"/><path d="M7514.78 3461.1l-3.28 1.23V3457l1.53-.58z" fill="#333"/><path d="M7514.8 3461.12l-3.32 1.24v-5.4l1.56-.57zm-3.28-4.1v5.27l3.22-1.2-1.73-4.65z" stroke="#333" stroke-width=".05" fill="#333"/><use xlink:href="#f" transform="matrix(1,0,0,1,7567.4663974576615,3394.960443716727) translate(0 30.222222222222214)"/><path d="M7679 3763.16l-4 3.02-66.05-87.63h6.27zm-97.95-129.94h-6.27L7511 3548.6l4-3z" stroke="#333" stroke-width=".05" fill="#333"/><path d="M7678.5 3770.42l-.2.15-3.34-4.45 3.54-2.66z" fill="#333"/><path d="M7678.52 3770.44l-.22.16-3.38-4.48 3.6-2.7zm-3.53-4.3l3.3 4.4.18-.13v-6.9z" stroke="#333" stroke-width=".05" fill="#333"/><path d="M7515.04 3545.64l-3.54 2.67v-6.96l.2-.14z" fill="#333"/><path d="M7515.07 3545.65l-3.6 2.7v-7.02l.23-.17zm-3.55-4.3v6.9l3.48-2.6-3.3-4.42z" stroke="#333" stroke-width=".05" fill="#333"/><use xlink:href="#f" transform="matrix(1,0,0,1,7538.438287139905,3633.215880011922) translate(0 30.222222222222214)"/><path d="M7460.52 4137.9l-4.93.9-41.65-230.15h5.08zm-49.7-274.58h-5.07l-41.5-229.26 4.94-.9z" stroke="#333" stroke-width=".05" fill="#333"/><path d="M7458.5 4143.86l-1.93.35-1-5.47 2.93-.53z" fill="#333"/><path d="M7458.52 4143.88l-1.97.35-1-5.52 2.97-.53zm-2.9-5.13l.97 5.43 1.88-.34v-5.6z" stroke="#333" stroke-width=".05" fill="#333"/><path d="M7369.2 3633.24l-4.92.9-.54-2.98h5.08z" fill="#333"/><path d="M7369.23 3633.26l-4.97.9-.55-3.03h5.14zm-5.46-2.08l.53 2.92 4.87-.88-.37-2.04z" stroke="#333" stroke-width=".05" fill="#333"/><use xlink:href="#f" transform="matrix(1,0,0,1,7355.827987225247,3863.31668637787) translate(0 30.222222222222214)"/><path d="M7410.77 4455.5l-4.88 1.12-88.85-389.12h5.13zm-98.94-433.34h-5.13l-88.58-388 4.87-1.12z" stroke="#333" stroke-width=".05" fill="#333"/><path d="M7411.45 4458.5h-5.13l-.44-1.94 4.87-1.12z" fill="#333"/><path d="M7411.48 4458.52h-5.18l-.45-1.98 4.92-1.13zm-5.57-1.95l.44 1.9h5.08l-.7-3z" stroke="#333" stroke-width=".05" fill="#333"/><path d="M7223 3633.1l-4.87 1.12-.7-3.06h5.13z" fill="#333"/><path d="M7223.04 3633.12l-4.93 1.13-.7-3.12h5.18zm-5.57-1.94l.68 3 4.83-1.1-.44-1.9z" stroke="#333" stroke-width=".05" fill="#333"/><use xlink:href="#f" transform="matrix(1,0,0,1,7257.882021220248,4022.1627176411484) translate(0 30.222222222222214)"/><path d="M6930 3329.66a12.8 12.8 0 0 1 4.6-9.84l31.6-26.32a16.57 16.57 0 0 1 10.6-3.84H7504a6 6 0 0 1 6 6v287.2a16.57 16.57 0 0 1-3.84 10.6l-26.32 31.6a12.8 12.8 0 0 1-9.84 4.6h-534a6 6 0 0 1-6-6z" stroke="#333" stroke-width="3" fill="#fff"/><path d="M6936 3323.66a2.17 2.17 0 0 1-1.4-3.84l31.6-26.32a16.57 16.57 0 0 1 10.6-3.84H7504a2.48 2.48 0 0 1 1.76 4.24l-25.52 25.52a14.48 14.48 0 0 1-10.24 4.24z" stroke="#333" stroke-width="3" fill="#e6e6e6"/><path d="M7476 3329.66a14.48 14.48 0 0 1 4.24-10.24l25.52-25.52a2.48 2.48 0 0 1 4.24 1.76v287.2a16.57 16.57 0 0 1-3.84 10.6l-26.32 31.6a2.17 2.17 0 0 1-3.84-1.4z" stroke="#333" stroke-width="3" fill="#ccc"/><path d="M7010 3410h360v140h-360z" stroke="#333" stroke-width="3" fill="#fff"/><path d="M7360 3420h-15v20h15z" stroke="#333" fill="#fff"/><path d="M7350 3423.33h-10v3.34h10zm0 10h-10v3.34h10z" stroke="#333" fill="#fff"/><use xlink:href="#c" transform="matrix(1,0,0,1,7010,3410) translate(83.00500000000004 56.33333333333333)"/><use xlink:href="#g" transform="matrix(1,0,0,1,7010,3410) translate(60.05438271604941 91.88888888888889)"/><use xlink:href="#h" transform="matrix(1,0,0,1,7010,3410) translate(199.88154320987655 91.88888888888889)"/><path d="M7118.9 4500a12.8 12.8 0 0 1 4.6-9.84l31.58-26.32a16.57 16.57 0 0 1 10.6-3.84h527.2a6 6 0 0 1 6 6v287.2a16.57 16.57 0 0 1-3.83 10.6l-26.32 31.6a12.8 12.8 0 0 1-9.84 4.6h-534a6 6 0 0 1-6-6z" stroke="#333" stroke-width="3" fill="#fff"/><path d="M7124.9 4494a2.17 2.17 0 0 1-1.4-3.84l31.58-26.32a16.57 16.57 0 0 1 10.6-3.84h527.2a2.48 2.48 0 0 1 1.77 4.24l-25.52 25.52a14.48 14.48 0 0 1-10.24 4.24z" stroke="#333" stroke-width="3" fill="#e6e6e6"/><path d="M7664.9 4500a14.48 14.48 0 0 1 4.23-10.24l25.52-25.52a2.48 2.48 0 0 1 4.24 1.76v287.2a16.57 16.57 0 0 1-3.85 10.6l-26.32 31.6a2.17 2.17 0 0 1-3.84-1.4z" stroke="#333" stroke-width="3" fill="#ccc"/><path d="M7220 4585.25h360v140h-360z" stroke="#333" stroke-width="3" fill="#fff"/><path d="M7570 4595.25h-15v20h15z" stroke="#333" fill="#fff"/><path d="M7560 4598.59l-10-.02v3.34h10zm0 9.98h-10v3.34h10z" stroke="#333" fill="#fff"/><use xlink:href="#c" transform="matrix(1,0,0,1,7220,4585.25213127754) translate(83.00500000000004 56.33333333333333)"/><use xlink:href="#i" transform="matrix(1,0,0,1,7220,4585.25213127754) translate(102.65932098765434 91.88888888888889)"/><path d="M7460 4010.8a12.8 12.8 0 0 1 4.6-9.83l31.6-26.32a16.57 16.57 0 0 1 10.6-3.84H8034a6 6 0 0 1 6 6V4264a16.57 16.57 0 0 1-3.84 10.62l-26.32 31.58a12.8 12.8 0 0 1-9.84 4.6h-534a6 6 0 0 1-6-6z" stroke="#333" stroke-width="3" fill="#fff"/><path d="M7466 4004.8a2.17 2.17 0 0 1-1.4-3.83l31.6-26.32a16.57 16.57 0 0 1 10.6-3.84H8034a2.48 2.48 0 0 1 1.76 4.25l-25.52 25.5a14.48 14.48 0 0 1-10.24 4.26z" stroke="#333" stroke-width="3" fill="#e6e6e6"/><path d="M8006 4010.8a14.48 14.48 0 0 1 4.24-10.24l25.52-25.5a2.48 2.48 0 0 1 4.24 1.75V4264a16.57 16.57 0 0 1-3.84 10.62l-26.32 31.58a2.17 2.17 0 0 1-3.84-1.4z" stroke="#333" stroke-width="3" fill="#ccc"/><path d="M7551.94 4089.37h360v140h-360z" stroke="#333" stroke-width="3" fill="#fff"/><path d="M7901.94 4099.37h-15v20h15z" stroke="#333" fill="#fff"/><path d="M7891.94 4102.7h-10v3.34h10zm0 10h-10v3.34h10z" stroke="#333" fill="#fff"/><use xlink:href="#c" transform="matrix(1,0,0,1,7551.943749615313,4089.372841744138) translate(83.00500000000004 56.33333333333333)"/><use xlink:href="#j" transform="matrix(1,0,0,1,7551.943749615313,4089.372841744138) translate(71.67783950617287 91.88888888888889)"/><path d="M7680 3636.67a12.8 12.8 0 0 1 4.6-9.84l31.6-26.32a16.57 16.57 0 0 1 10.6-3.83H8254a6 6 0 0 1 6 6v287.2a16.57 16.57 0 0 1-3.84 10.6l-26.32 31.6a12.8 12.8 0 0 1-9.84 4.6h-534a6 6 0 0 1-6-6z" stroke="#333" stroke-width="3" fill="#fff"/><path d="M7686 3630.67a2.17 2.17 0 0 1-1.4-3.84l31.6-26.32a16.57 16.57 0 0 1 10.6-3.83H8254a2.48 2.48 0 0 1 1.76 4.24l-25.52 25.52a14.48 14.48 0 0 1-10.24 4.25z" stroke="#333" stroke-width="3" fill="#e6e6e6"/><path d="M8226 3636.67a14.48 14.48 0 0 1 4.24-10.25l25.52-25.5a2.48 2.48 0 0 1 4.24 1.75v287.2a16.57 16.57 0 0 1-3.84 10.6l-26.32 31.6a2.17 2.17 0 0 1-3.84-1.4z" stroke="#333" stroke-width="3" fill="#ccc"/><path d="M7771.94 3709.78h360v140h-360z" stroke="#333" stroke-width="3" fill="#fff"/><path d="M8121.94 3719.78h-15v20h15z" stroke="#333" fill="#fff"/><path d="M8111.94 3723.1h-10v3.34h10zm0 10h-10v3.34h10z" stroke="#333" fill="#fff"/><use xlink:href="#c" transform="matrix(1,0,0,1,7771.943749615302,3709.7764423157096) translate(83.00500000000004 56.33333333333333)"/><use xlink:href="#k" transform="matrix(1,0,0,1,7771.943749615302,3709.7764423157096) translate(81.57290123456794 91.88888888888889)"/><path d="M7738.06 3245.6a12.8 12.8 0 0 1 4.6-9.85l31.6-26.3a16.57 16.57 0 0 1 10.6-3.86h527.2a6 6 0 0 1 6 6v287.2a16.57 16.57 0 0 1-3.84 10.6l-26.32 31.6a12.8 12.8 0 0 1-9.84 4.6h-534a6 6 0 0 1-6-6z" stroke="#333" stroke-width="3" fill="#fff"/><path d="M7744.06 3239.6a2.17 2.17 0 0 1-1.4-3.85l31.6-26.3a16.57 16.57 0 0 1 10.6-3.86h527.2a2.48 2.48 0 0 1 1.75 4.24l-25.5 25.5a14.48 14.48 0 0 1-10.24 4.25z" stroke="#333" stroke-width="3" fill="#e6e6e6"/><path d="M8284.06 3245.6a14.48 14.48 0 0 1 4.24-10.25l25.5-25.5a2.48 2.48 0 0 1 4.26 1.74v287.2a16.57 16.57 0 0 1-3.84 10.6l-26.32 31.6a2.17 2.17 0 0 1-3.84-1.4z" stroke="#333" stroke-width="3" fill="#ccc"/><path d="M7828.06 3308.74h360v140h-360z" stroke="#333" stroke-width="3" fill="#fff"/><path d="M8178.06 3318.74h-15v20h15z" stroke="#333" fill="#fff"/><path d="M8168.06 3322.08h-10v3.33h10zm0 10h-10v3.33h10z" stroke="#333" fill="#fff"/><use xlink:href="#c" transform="matrix(1,0,0,1,7828.056250384694,3308.7435397797094) translate(83.00500000000004 56.33333333333333)"/><use xlink:href="#l" transform="matrix(1,0,0,1,7828.056250384694,3308.7435397797094) translate(50.591419753086434 91.88888888888889)"/><path d="M7760 2869.66a12.8 12.8 0 0 1 4.6-9.84l31.6-26.32a16.57 16.57 0 0 1 10.6-3.84H8334a6 6 0 0 1 6 6v287.2a16.57 16.57 0 0 1-3.84 10.6l-26.32 31.6a12.8 12.8 0 0 1-9.84 4.6h-534a6 6 0 0 1-6-6z" stroke="#333" stroke-width="3" fill="#fff"/><path d="M7766 2863.66a2.17 2.17 0 0 1-1.4-3.84l31.6-26.32a16.57 16.57 0 0 1 10.6-3.84H8334a2.48 2.48 0 0 1 1.76 4.24l-25.52 25.52a14.48 14.48 0 0 1-10.24 4.24z" stroke="#333" stroke-width="3" fill="#e6e6e6"/><path d="M8306 2869.66a14.48 14.48 0 0 1 4.24-10.24l25.52-25.52a2.48 2.48 0 0 1 4.24 1.76v287.2a16.57 16.57 0 0 1-3.84 10.6l-26.32 31.6a2.17 2.17 0 0 1-3.84-1.4z" stroke="#333" stroke-width="3" fill="#ccc"/><path d="M7838.9 2926.5h360v140h-360z" stroke="#333" stroke-width="3" fill="#fff"/><path d="M8188.9 2936.5h-15v20h15z" stroke="#333" fill="#fff"/><path d="M8178.9 2939.84h-10v3.34h10zm0 10h-10v3.34h10z" stroke="#333" fill="#fff"/><use xlink:href="#c" transform="matrix(1,0,0,1,7838.887499230612,2926.5106809870663) translate(83.00500000000004 56.33333333333333)"/><use xlink:href="#m" transform="matrix(1,0,0,1,7838.887499230612,2926.5106809870663) translate(76.51734567901238 91.88888888888889)"/><path d="M7680 2127.54a12.8 12.8 0 0 1 4.6-9.84l31.6-26.32a16.57 16.57 0 0 1 10.6-3.84H8254a6 6 0 0 1 6 6v287.2a16.57 16.57 0 0 1-3.84 10.6l-26.32 31.6a12.8 12.8 0 0 1-9.84 4.6h-534a6 6 0 0 1-6-6z" stroke="#333" stroke-width="3" fill="#fff"/><path d="M7686 2121.54a2.17 2.17 0 0 1-1.4-3.84l31.6-26.32a16.57 16.57 0 0 1 10.6-3.84H8254a2.48 2.48 0 0 1 1.76 4.24l-25.52 25.5a14.48 14.48 0 0 1-10.24 4.26z" stroke="#333" stroke-width="3" fill="#e6e6e6"/><path d="M8226 2127.54a14.48 14.48 0 0 1 4.24-10.24l25.52-25.52a2.48 2.48 0 0 1 4.24 1.76v287.2a16.57 16.57 0 0 1-3.84 10.6l-26.32 31.6a2.17 2.17 0 0 1-3.84-1.4z" stroke="#333" stroke-width="3" fill="#ccc"/><path d="M7790 2195.42h360v140h-360z" stroke="#333" stroke-width="3" fill="#fff"/><path d="M8140 2205.42h-15v20h15z" stroke="#333" fill="#fff"/><path d="M8130 2208.75h-10v3.33h10zm0 10h-10v3.33h10z" stroke="#333" fill="#fff"/><use xlink:href="#c" transform="matrix(1,0,0,1,7790,2195.4173349672633) translate(83.00500000000004 56.33333333333333)"/><use xlink:href="#n" transform="matrix(1,0,0,1,7790,2195.4173349672633) translate(45.53586419753089 91.88888888888889)"/><path d="M5860 2599.66a12.8 12.8 0 0 1 4.6-9.84l31.6-26.32a16.57 16.57 0 0 1 10.6-3.84H6434a6 6 0 0 1 6 6v287.2a16.57 16.57 0 0 1-3.84 10.6l-26.32 31.6a12.8 12.8 0 0 1-9.84 4.6h-534a6 6 0 0 1-6-6z" stroke="#333" stroke-width="3" fill="#fff"/><path d="M5866 2593.66a2.17 2.17 0 0 1-1.4-3.84l31.6-26.32a16.57 16.57 0 0 1 10.6-3.84H6434a2.48 2.48 0 0 1 1.76 4.24l-25.52 25.52a14.48 14.48 0 0 1-10.24 4.24z" stroke="#333" stroke-width="3" fill="#e6e6e6"/><path d="M6406 2599.66a14.48 14.48 0 0 1 4.24-10.24l25.52-25.52a2.48 2.48 0 0 1 4.24 1.76v287.2a16.57 16.57 0 0 1-3.84 10.6l-26.32 31.6a2.17 2.17 0 0 1-3.84-1.4z" stroke="#333" stroke-width="3" fill="#ccc"/><path d="M5950 2680h360v140h-360z" stroke="#333" stroke-width="3" fill="#fff"/><path d="M6300 2690h-15v20h15z" stroke="#333" fill="#fff"/><path d="M6290 2693.33h-10v3.34h10zm0 10h-10v3.34h10z" stroke="#333" fill="#fff"/><use xlink:href="#c" transform="matrix(1,0,0,1,5950,2680) translate(83.00500000000004 56.33333333333333)"/><use xlink:href="#o" transform="matrix(1,0,0,1,5950,2680) translate(11.961790123456817 91.88888888888889)"/><path d="M5860 3559.66a12.8 12.8 0 0 1 4.6-9.84l31.6-26.32a16.57 16.57 0 0 1 10.6-3.84H6434a6 6 0 0 1 6 6v287.2a16.57 16.57 0 0 1-3.84 10.6l-26.32 31.6a12.8 12.8 0 0 1-9.84 4.6h-534a6 6 0 0 1-6-6z" stroke="#333" stroke-width="3" fill="#fff"/><path d="M5866 3553.66a2.17 2.17 0 0 1-1.4-3.84l31.6-26.32a16.57 16.57 0 0 1 10.6-3.84H6434a2.48 2.48 0 0 1 1.76 4.24l-25.52 25.52a14.48 14.48 0 0 1-10.24 4.24z" stroke="#333" stroke-width="3" fill="#e6e6e6"/><path d="M6406 3559.66a14.48 14.48 0 0 1 4.24-10.24l25.52-25.52a2.48 2.48 0 0 1 4.24 1.76v287.2a16.57 16.57 0 0 1-3.84 10.6l-26.32 31.6a2.17 2.17 0 0 1-3.84-1.4z" stroke="#333" stroke-width="3" fill="#ccc"/><path d="M5950 3640h360v140h-360z" stroke="#333" stroke-width="3" fill="#fff"/><path d="M6300 3650h-15v20h15z" stroke="#333" fill="#fff"/><path d="M6290 3653.33h-10v3.34h10zm0 10h-10v3.34h10z" stroke="#333" fill="#fff"/><use xlink:href="#c" transform="matrix(1,0,0,1,5950,3640) translate(83.00500000000004 56.33333333333333)"/><use xlink:href="#p" transform="matrix(1,0,0,1,5950,3640) translate(17.017345679012386 91.88888888888889)"/><path d="M5860 3079.66a12.8 12.8 0 0 1 4.6-9.84l31.6-26.32a16.57 16.57 0 0 1 10.6-3.84H6434a6 6 0 0 1 6 6v287.2a16.57 16.57 0 0 1-3.84 10.6l-26.32 31.6a12.8 12.8 0 0 1-9.84 4.6h-534a6 6 0 0 1-6-6z" stroke="#333" stroke-width="3" fill="#fff"/><path d="M5866 3073.66a2.17 2.17 0 0 1-1.4-3.84l31.6-26.32a16.57 16.57 0 0 1 10.6-3.84H6434a2.48 2.48 0 0 1 1.76 4.24l-25.52 25.52a14.48 14.48 0 0 1-10.24 4.24z" stroke="#333" stroke-width="3" fill="#e6e6e6"/><path d="M6406 3079.66a14.48 14.48 0 0 1 4.24-10.24l25.52-25.52a2.48 2.48 0 0 1 4.24 1.76v287.2a16.57 16.57 0 0 1-3.84 10.6l-26.32 31.6a2.17 2.17 0 0 1-3.84-1.4z" stroke="#333" stroke-width="3" fill="#ccc"/><path d="M5970 3139.66h360v140h-360z" stroke="#333" stroke-width="3" fill="#fff"/><path d="M6320 3149.66h-15v20h15z" stroke="#333" fill="#fff"/><path d="M6310 3153h-10v3.32h10zm0 10h-10v3.32h10z" stroke="#333" fill="#fff"/><use xlink:href="#c" transform="matrix(1,0,0,1,5970,3139.658775371713) translate(83.00500000000004 56.33333333333333)"/><use xlink:href="#q" transform="matrix(1,0,0,1,5970,3139.658775371713) translate(17.924753086419777 91.88888888888889)"/><path d="M5840 4039.66a12.8 12.8 0 0 1 4.6-9.84l31.6-26.32a16.57 16.57 0 0 1 10.6-3.84H6414a6 6 0 0 1 6 6v287.2a16.57 16.57 0 0 1-3.84 10.6l-26.32 31.6a12.8 12.8 0 0 1-9.84 4.6h-534a6 6 0 0 1-6-6z" stroke="#333" stroke-width="3" fill="#fff"/><path d="M5846 4033.66a2.17 2.17 0 0 1-1.4-3.84l31.6-26.32a16.57 16.57 0 0 1 10.6-3.84H6414a2.48 2.48 0 0 1 1.76 4.24l-25.52 25.52a14.48 14.48 0 0 1-10.24 4.24z" stroke="#333" stroke-width="3" fill="#e6e6e6"/><path d="M6386 4039.66a14.48 14.48 0 0 1 4.24-10.24l25.52-25.52a2.48 2.48 0 0 1 4.24 1.76v287.2a16.57 16.57 0 0 1-3.84 10.6l-26.32 31.6a2.17 2.17 0 0 1-3.84-1.4z" stroke="#333" stroke-width="3" fill="#ccc"/><path d="M5940 4099.66h360v140h-360z" stroke="#333" stroke-width="3" fill="#fff"/><path d="M6290 4109.66h-15v20h15z" stroke="#333" fill="#fff"/><path d="M6280 4113h-10v3.32h10zm0 10h-10v3.32h10z" stroke="#333" fill="#fff"/><use xlink:href="#c" transform="matrix(1,0,0,1,5940,4099.658775371713) translate(83.00500000000004 56.33333333333333)"/><use xlink:href="#r" transform="matrix(1,0,0,1,5940,4099.658775371713) translate(39.01117283950621 91.88888888888889)"/><path d="M4720 3079.66a12.8 12.8 0 0 1 4.6-9.84l31.6-26.32a16.57 16.57 0 0 1 10.6-3.84H5294a6 6 0 0 1 6 6v287.2a16.57 16.57 0 0 1-3.84 10.6l-26.32 31.6a12.8 12.8 0 0 1-9.84 4.6h-534a6 6 0 0 1-6-6z" stroke="#333" stroke-width="3" fill="#fff"/><path d="M4726 3073.66a2.17 2.17 0 0 1-1.4-3.84l31.6-26.32a16.57 16.57 0 0 1 10.6-3.84H5294a2.48 2.48 0 0 1 1.76 4.24l-25.52 25.52a14.48 14.48 0 0 1-10.24 4.24z" stroke="#333" stroke-width="3" fill="#e6e6e6"/><path d="M5266 3079.66a14.48 14.48 0 0 1 4.24-10.24l25.52-25.52a2.48 2.48 0 0 1 4.24 1.76v287.2a16.57 16.57 0 0 1-3.84 10.6l-26.32 31.6a2.17 2.17 0 0 1-3.84-1.4z" stroke="#333" stroke-width="3" fill="#ccc"/><path d="M4810 3149.66h360v140h-360z" stroke="#333" stroke-width="3" fill="#fff"/><path d="M5160 3159.66h-15v20h15z" stroke="#333" fill="#fff"/><path d="M5150 3163h-10v3.32h10zm0 10h-10v3.32h10z" stroke="#333" fill="#fff"/><use xlink:href="#c" transform="matrix(1,0,0,1,4810,3149.658775371713) translate(83.00500000000004 56.33333333333333)"/><use xlink:href="#s" transform="matrix(1,0,0,1,4810,3149.658775371713) translate(70.5111728395062 91.88888888888889)"/><path d="M9580 3260a12.8 12.8 0 0 1 4.6-9.84l31.6-26.32a16.57 16.57 0 0 1 10.6-3.84h527.2a6 6 0 0 1 6 6v287.2a16.57 16.57 0 0 1-3.84 10.6l-26.32 31.6a12.8 12.8 0 0 1-9.84 4.6h-534a6 6 0 0 1-6-6z" stroke="#333" stroke-width="3" fill="#fff"/><path d="M9586 3254a2.17 2.17 0 0 1-1.4-3.84l31.6-26.32a16.57 16.57 0 0 1 10.6-3.84h527.2a2.48 2.48 0 0 1 1.76 4.24l-25.52 25.52a14.48 14.48 0 0 1-10.24 4.24z" stroke="#333" stroke-width="3" fill="#e6e6e6"/><path d="M10126 3260a14.48 14.48 0 0 1 4.24-10.24l25.52-25.52a2.48 2.48 0 0 1 4.24 1.76v287.2a16.57 16.57 0 0 1-3.84 10.6l-26.32 31.6a2.17 2.17 0 0 1-3.84-1.4z" stroke="#333" stroke-width="3" fill="#ccc"/><path d="M9620 3320h457.12v158.1H9620z" stroke="#333" stroke-width="3" fill="#fff"/><path d="M10054.48 3353.67h10.18v38.9h-10.18z" stroke="#5e5e5e" stroke-width="3" fill="#fff"/><path d="M10051.08 3361.45h6.8v7.78h-6.8zM10051.08 3377h6.8v7.8h-6.8z" stroke="#5e5e5e" stroke-width="3" fill="#fff"/><path d="M9794.27 3362.14a6 6 0 0 1 6-6h92.07a6 6 0 0 1 6 6v26.9a6 6 0 0 1-6 6h-92.07a6 6 0 0 1-6-6z" stroke="#000" stroke-opacity="0" stroke-width="3" fill="#fff" fill-opacity="0"/><use xlink:href="#t" transform="matrix(1,0,0,1,9799.265651360201,3361.139445395062) translate(-49.49999999999997 21.333333333333332)"/><path d="M9803.32 3388.22a6 6 0 0 1 6-6h73.97a6 6 0 0 1 6 6v72.67a6 6 0 0 1-6 6h-73.98a6 6 0 0 1-6-6z" stroke="#000" stroke-opacity="0" stroke-width="3" fill="#fff" fill-opacity="0"/><use xlink:href="#u" transform="matrix(1,0,0,1,9808.315379669786,3387.223557684316) translate(-64.62345679012343 43.72222222222222)"/><path d="M9580 3970a12.8 12.8 0 0 1 4.6-9.84l31.6-26.32a16.57 16.57 0 0 1 10.6-3.84h527.2a6 6 0 0 1 6 6v287.2a16.57 16.57 0 0 1-3.84 10.6l-26.32 31.6a12.8 12.8 0 0 1-9.84 4.6h-534a6 6 0 0 1-6-6z" stroke="#333" stroke-width="3" fill="#fff"/><path d="M9586 3964a2.17 2.17 0 0 1-1.4-3.84l31.6-26.32a16.57 16.57 0 0 1 10.6-3.84h527.2a2.48 2.48 0 0 1 1.76 4.24l-25.52 25.52a14.48 14.48 0 0 1-10.24 4.24z" stroke="#333" stroke-width="3" fill="#e6e6e6"/><path d="M10126 3970a14.48 14.48 0 0 1 4.24-10.24l25.52-25.52a2.48 2.48 0 0 1 4.24 1.76v287.2a16.57 16.57 0 0 1-3.84 10.6l-26.32 31.6a2.17 2.17 0 0 1-3.84-1.4z" stroke="#333" stroke-width="3" fill="#ccc"/><path d="M9680 4030.8h360v140h-360z" stroke="#333" stroke-width="3" fill="#fff"/><path d="M10030 4040.8h-15v20h15z" stroke="#333" fill="#fff"/><path d="M10020 4044.14h-10v3.34h10zm0 10h-10v3.34h10z" stroke="#333" fill="#fff"/><use xlink:href="#c" transform="matrix(1,0,0,1,9680,4030.807959724947) translate(83.00500000000004 56.33333333333333)"/><use xlink:href="#v" transform="matrix(1,0,0,1,9680,4030.807959724947) translate(46.184012345679044 91.88888888888889)"/><use xlink:href="#w" transform="matrix(1,0,0,1,9680,4030.807959724947) translate(203.29512345679012 91.88888888888889)"/><path d="M9872.5 3926h-5v-158.33h5zm0-203.67h-5V3564h5z" stroke="#333" stroke-width=".05" fill="#333"/><path d="M9872.5 3564.06h-5v-2.56h5z" fill="#333"/><path d="M9872.52 3564.1h-5.05v-2.63h5.06zm-5-2.57v2.5h4.95v-2.5z" stroke="#333" stroke-width=".05" fill="#333"/><path d="M9872.5 3928.5h-5v-2.56h5z" fill="#333"/><path d="M9872.52 3928.53h-5.05v-2.62h5.06zm-5-2.57v2.5h4.95v-2.5z" stroke="#333" stroke-width=".05" fill="#333"/><use xlink:href="#x" transform="matrix(1,0,0,1,9820.836419753086,3722.3333299553037) translate(0 30.222222222222214)"/><path d="M8809.17 4505.44L7703.3 4717.42l-.93-4.9 1106.8-212.17zm1205.13-231l-1106.8 212.15v-5.1l1105.85-211.98z" stroke="#333" stroke-width=".05" fill="#333"/><path d="M7703.38 4717.4l-3 .6v-5.1l2.06-.4z" fill="#333"/><path d="M7703.4 4717.43l-3.04.6v-5.16l2.1-.4zm-3-4.52v5.06l2.95-.57-.94-4.87z" stroke="#333" stroke-width=".05" fill="#333"/><path d="M10019.7 4273.4l-5.47 1.04-.56-2.94h5.66z" fill="#333"/><path d="M10019.73 4273.4l-5.52 1.07-.56-3h5.72zm-6.03-1.88l.55 2.9 5.42-1.05-.36-1.85z" stroke="#333" stroke-width=".05" fill="#333"/><use xlink:href="#x" transform="matrix(1,0,0,1,8809.169856305984,4470.803144488927) translate(0 30.222222222222214)"/><path d="M8690.38 4075.7h7.1l-993.76 470.05-2.14-4.52 988.8-467.7zm98.33-43.16v-2.18h-7.1l66.9-31.64h11.7zm988.8-467.7l-821.45 388.55h-11.7l831.02-393.1z" stroke="#333" stroke-width=".05" fill="#333"/><path d="M7703.77 4545.72l-3.38 1.6v-5.52l1.24-.6z" fill="#333"/><path d="M7703.8 4545.74l-3.44 1.63v-5.6l1.3-.6zm-3.4-3.93v5.5l3.34-1.6-2.12-4.46z" stroke="#333" stroke-width=".05" fill="#333"/><path d="M9782.48 3562.48l-5.03 2.38-1.6-3.36h6.16z" fill="#333"/><path d="M9782.5 3562.5l-5.07 2.4-1.6-3.43h6.2zm-6.6-.97l1.56 3.3 4.98-2.36-.44-.94z" stroke="#333" stroke-width=".05" fill="#333"/><use xlink:href="#x" transform="matrix(1,0,0,1,8690.377778515114,4030.3635098981927) translate(0 30.222222222222214)"/><path d="M9721.82 3215.52l-1.08 4.88-638.97-140.66v-5.12zm-738.37-162.54v5.12l-640.05-140.9 1.08-4.88z" stroke="#333" stroke-width=".05" fill="#333"/><path d="M8344.54 2912.33l-1.07 4.88-1.97-.42v-5.12z" fill="#333"/><path d="M8344.57 2912.3l-1.08 4.94-2.02-.44v-5.17zm-3.05 4.46l1.93.42 1.06-4.83-2.98-.66z" stroke="#333" stroke-width=".05" fill="#333"/><path d="M9727.2 3216.7l-.4 1.8h-5.7l.65-3z" fill="#333"/><path d="M9727.22 3216.68l-.4 1.85h-5.76l.68-3.05zm-6.1 1.8h5.65l.4-1.76-5.4-1.18z" stroke="#333" stroke-width=".05" fill="#333"/><use xlink:href="#x" transform="matrix(1,0,0,1,8983.446685553245,3043.692913465233) translate(0 30.222222222222214)"/><path d="M9576.03 3302.03l-.06 5-577.78-6.6v-5zm-676.17-7.74v5l-577.83-6.62.05-5z" stroke="#333" stroke-width=".05" fill="#333"/><path d="M8322.15 3287.7l-.06 5-2.54-.04v-5z" fill="#333"/><path d="M8322.17 3287.66l-.05 5.05-2.6-.02v-5.05zm-2.6 4.97l2.5.03.05-4.95-2.54-.02z" stroke="#333" stroke-width=".05" fill="#333"/><path d="M9578.5 3302.06v5l-2.6-.03.07-5z" fill="#333"/><path d="M9578.52 3302.03v5.06l-2.64-.04.06-5.05zm-2.6 4.98l2.56.03v-4.95l-2.5-.02z" stroke="#333" stroke-width=".05" fill="#333"/><use xlink:href="#x" transform="matrix(1,0,0,1,8899.864516200669,3274.691413726087) translate(0 30.222222222222214)"/><path d="M8870.84 3549.05l-606.36 134.08-1.08-4.88 607.44-134.32zm705.76-156.07l-464.45 102.7v-5.12l463.37-102.46z" stroke="#333" stroke-width=".05" fill="#333"/><path d="M8264.54 3683.1l-3.04.7v-5.13l1.96-.44z" fill="#333"/><path d="M8264.57 3683.13l-3.1.7v-5.18l2-.45zm-3.05-4.44v5.06l3-.67-1.08-4.84z" stroke="#333" stroke-width=".05" fill="#333"/><path d="M9578.5 3392.56l-1.96.43-1.08-4.9 3.04-.66z" fill="#333"/><path d="M9578.52 3392.58l-2 .44-1.1-4.93 3.1-.7zm-3.03-4.45l1.06 4.84 1.92-.43v-5.07z" stroke="#333" stroke-width=".05" fill="#333"/><use xlink:href="#x" transform="matrix(1,0,0,1,8870.836405538874,3512.9468497268845) translate(0 30.222222222222214)"/><path d="M9576.5 4097.08l-.92 4.9-576.04-108.4v-5.1zm-736.04-138.54v5.1l-576.97-108.6.92-4.93z" stroke="#333" stroke-width=".05" fill="#333"/><path d="M8264.48 3850.12l-.92 4.92-2.06-.4v-5.08z" fill="#333"/><path d="M8264.5 3850.1l-.92 4.97-2.1-.4v-5.14zm-2.98 4.53l2.02.38.9-4.86-2.92-.55z" stroke="#333" stroke-width=".05" fill="#333"/><path d="M9578.5 4097.46v5.08l-2.98-.56.92-4.9z" fill="#333"/><path d="M9578.52 4097.44v5.13l-3.03-.57.92-4.96zm-2.97 4.52l2.93.55v-5.02l-2.02-.38z" stroke="#333" stroke-width=".05" fill="#333"/><use xlink:href="#y" transform="matrix(1,0,0,1,8840.456805658423,3953.386492326071) translate(0 30.222222222222214)"/><path d="M8833.45 3825.47l-788.85 231.6-1.4-4.8 790.25-232zm888.58-260.87l-790.26 232v-5.2l788.85-231.6z" stroke="#333" stroke-width=".05" fill="#333"/><path d="M8044.66 4057.05l-3.16.92v-5.2l1.76-.52z" fill="#333"/><path d="M8044.7 4057.06l-3.22.95v-5.26l1.8-.52zm-3.18-4.28v5.16l3.1-.9-1.38-4.76z" stroke="#333" stroke-width=".05" fill="#333"/><path d="M9727.3 3563.05l-5.33 1.57-.92-3.12h5.8z" fill="#333"/><path d="M9727.33 3563.07l-5.38 1.58-.94-3.18h5.87zm-6.25-1.55l.9 3.07 5.3-1.56-.45-1.5z" stroke="#333" stroke-width=".05" fill="#333"/><use xlink:href="#x" transform="matrix(1,0,0,1,8833.44668150726,3785.7674916137453) translate(0 30.222222222222214)"/><path d="M9576 4232.25v5l-716.84-3.97v-5zm-815.16-4.52v5l-716.85-3.97v-5z" stroke="#333" stroke-width=".05" fill="#333"/><path d="M8044.08 4223.76l-.03 5h-2.55v-5z" fill="#333"/><path d="M8044.1 4223.74l-.03 5.05-2.6-.03v-5.05zm-2.58 4.98l2.5.02.03-4.95-2.53-.03z" stroke="#333" stroke-width=".05" fill="#333"/><path d="M9578.5 4232.27v5l-2.58-.02.03-5z" fill="#333"/><path d="M9578.52 4232.24v5.05l-2.62-.02.02-5.05zm-2.57 5h2.52v-4.95l-2.5-.02z" stroke="#333" stroke-width=".05" fill="#333"/><use xlink:href="#x" transform="matrix(1,0,0,1,8760.83645820733,4207.839815391274) translate(0 30.222222222222214)"/><path d="M9722.9 3925.06l-2.62 4.27-655.32-399.86h9.6zm-722.64-440.93h-9.6l-648.33-395.6 2.6-4.26z" stroke="#333" stroke-width=".05" fill="#333"/><path d="M8345 3084.3l-2.6 4.27-.9-.54v-5.86z" fill="#333"/><path d="M8345.02 3084.3l-2.63 4.3-.92-.56v-5.9zm-3.5 3.7l.86.53 2.58-4.22-3.43-2.1z" stroke="#333" stroke-width=".05" fill="#333"/><path d="M9727.58 3927.93l-.34.57h-6.52l2.1-3.47z" fill="#333"/><path d="M9727.62 3927.92l-.37.6h-6.58l2.16-3.52zm-6.86.55h6.46l.33-.53-4.7-2.88z" stroke="#333" stroke-width=".05" fill="#333"/><use xlink:href="#y" transform="matrix(1,0,0,1,8953.067085672794,3484.1325560644195) translate(0 30.222222222222214)"/><path d="M9577.22 4011.27l-2 4.57-580.85-255.38h12.42zm-673.53-296.14h-12.44l-570.42-250.8 2-4.58z" stroke="#333" stroke-width=".05" fill="#333"/><path d="M8322.9 3459.78l-2 4.58-1.34-.6v-5.46z" fill="#333"/><path d="M8322.94 3459.77l-2.03 4.62-1.37-.62v-5.5zm-3.36 3.98l1.3.57 2-4.53-3.3-1.46z" stroke="#333" stroke-width=".05" fill="#333"/><path d="M9578.5 4011.83v5.46l-3.35-1.48 2-4.58z" fill="#333"/><path d="M9578.52 4011.8v5.53l-3.4-1.5 2.03-4.62zm-3.34 4l3.3 1.45v-5.4l-1.3-.58z" stroke="#333" stroke-width=".05" fill="#333"/><g><use xlink:href="#y" transform="matrix(1,0,0,1,8869.484916320218,3715.1310563252737) translate(0 30.222222222222214)"/></g><path d="M9605.45 3937.57l-3.83 3.22-652.5-776.1h6.53zm-687.92-818.2H8911l-649.8-772.87 3.82-3.22z" stroke="#333" stroke-width=".05" fill="#333"/><path d="M8265.06 2343.33l-3.56 3v-7.24z" fill="#333"/><path d="M8265.1 2343.34l-3.63 3.04v-7.36zm-3.58 2.93l3.5-2.94-3.5-4.17z" stroke="#333" stroke-width=".05" fill="#333"/><path d="M9607.07 3939.5l-3.84 3.2-1.65-1.96 3.83-3.22z" fill="#333"/><path d="M9607.1 3939.5l-3.88 3.23-1.67-2 3.86-3.24zm-5.48 1.24l1.6 1.92 3.8-3.17-1.6-1.95z" stroke="#333" stroke-width=".05" fill="#333"/><g><use xlink:href="#x" transform="matrix(1,0,0,1,8884.159879251507,3119.368024224101) translate(0 30.222222222222214)"/></g><path d="M9869.27 3215.04l-2.73 4.2L9096 2717.96h9.18zm-833.78-542.4h-9.18l-764.1-497.08 2.74-4.2z" stroke="#333" stroke-width=".05" fill="#333"/><path d="M8265 2171.4l-2.7 4.2-.8-.52v-5.96z" fill="#333"/><path d="M8265.05 2171.4l-2.76 4.23-.82-.54v-6.03zm-3.52 3.67l.75.5 2.7-4.16-3.45-2.24z" stroke="#333" stroke-width=".05" fill="#333"/><path d="M9873.88 3218.04l-.3.46h-6.64l2.27-3.5z" fill="#333"/><path d="M9873.9 3218.03l-.3.5h-6.7l2.3-3.56zm-6.9.44h6.57l.27-.42-4.62-3z" stroke="#333" stroke-width=".05" fill="#333"/><g><use xlink:href="#x" transform="matrix(1,0,0,1,9016.58638343003,2672.632550173276) translate(0 30.222222222222214)"/></g><defs><path fill="#333" d="M240-174c0 40-23 61-54 70L253 0h-59l-57-94H76V0H24v-248c93 4 217-23 216 74zM76-134c48-2 112 12 112-38 0-48-66-32-112-35v73" id="z"/><path fill="#333" d="M24-248c93 1 206-16 204 79-1 75-69 88-152 82V0H24v-248zm52 121c47 0 100 7 100-41 0-47-54-39-100-39v80" id="A"/><path fill="#333" d="M67-125c0 53 21 87 73 88 37 1 54-22 65-47l45 17C233-25 199 4 140 4 58 4 20-42 15-125 8-235 124-281 211-232c18 10 29 29 36 50l-46 12c-8-25-30-41-62-41-52 0-71 34-72 86" id="B"/><path fill="#333" d="M4 7l51-268h42L46 7H4" id="C"/><path fill="#333" d="M199 0l-22-63H83L61 0H9l90-248h61L250 0h-51zm-33-102l-36-108c-10 38-24 72-36 108h72" id="D"/><path fill="#333" d="M230 0l2-204L168 0h-37L68-204 70 0H24v-248h70l56 185 57-185h69V0h-46" id="E"/><path fill="#333" d="M140-251c80 0 125 45 125 126 0 70-33 111-92 124 6 28 34 38 68 31l-1 36C177 83 129 55 120 2 51-6 15-50 15-125c0-81 44-126 125-126zm-1 214c52 0 73-35 73-88 0-50-21-86-72-86-52 0-73 35-73 86s22 88 72 88" id="F"/><g id="a"><use transform="matrix(0.10493827160493824,0,0,0.10493827160493824,0,0)" xlink:href="#z"/><use transform="matrix(0.10493827160493824,0,0,0.10493827160493824,27.179012345679002,0)" xlink:href="#A"/><use transform="matrix(0.10493827160493824,0,0,0.10493827160493824,52.364197530864175,0)" xlink:href="#B"/><use transform="matrix(0.10493827160493824,0,0,0.10493827160493824,79.54320987654317,0)" xlink:href="#C"/><use transform="matrix(0.10493827160493824,0,0,0.10493827160493824,90.037037037037,0)" xlink:href="#D"/><use transform="matrix(0.10493827160493824,0,0,0.10493827160493824,117.216049382716,0)" xlink:href="#E"/><use transform="matrix(0.10493827160493824,0,0,0.10493827160493824,148.59259259259252,0)" xlink:href="#F"/><use transform="matrix(0.10493827160493824,0,0,0.10493827160493824,177.97530864197523,0)" xlink:href="#A"/></g><path fill="#333" d="M195-6C206 82 75 100 31 46c-4-6-6-13-8-21l49-6c3 16 16 24 34 25 40 0 42-37 40-79-11 22-30 35-61 35-53 0-70-43-70-97 0-56 18-96 73-97 30 0 46 14 59 34l2-30h47zm-90-29c32 0 41-27 41-63 0-35-9-62-40-62-32 0-39 29-40 63 0 36 9 62 39 62" id="G"/><g id="b"><use transform="matrix(0.10493827160493824,0,0,0.10493827160493824,0,0)" xlink:href="#G"/><use transform="matrix(0.10493827160493824,0,0,0.10493827160493824,22.981481481481474,0)" xlink:href="#z"/><use transform="matrix(0.10493827160493824,0,0,0.10493827160493824,50.16049382716048,0)" xlink:href="#A"/><use transform="matrix(0.10493827160493824,0,0,0.10493827160493824,75.34567901234566,0)" xlink:href="#B"/></g><path fill="#333" d="M18-100v-36l175-74v27L42-118l151 64v27" id="H"/><path fill="#333" d="M96-169c-40 0-48 33-48 73s9 75 48 75c24 0 41-14 43-38l32 2c-6 37-31 61-74 61-59 0-76-41-82-99-10-93 101-131 147-64 4 7 5 14 7 22l-32 3c-4-21-16-35-41-35" id="I"/><path fill="#333" d="M100-194c62-1 85 37 85 99 1 63-27 99-86 99S16-35 15-95c0-66 28-99 85-99zM99-20c44 1 53-31 53-75 0-43-8-75-51-75s-53 32-53 75 10 74 51 75" id="J"/><path fill="#333" d="M210-169c-67 3-38 105-44 169h-31v-121c0-29-5-50-35-48C34-165 62-65 56 0H25l-1-190h30c1 10-1 24 2 32 10-44 99-50 107 0 11-21 27-35 58-36 85-2 47 119 55 194h-31v-121c0-29-5-49-35-48" id="K"/><path fill="#333" d="M115-194c55 1 70 41 70 98S169 2 115 4C84 4 66-9 55-30l1 105H24l-1-265h31l2 30c10-21 28-34 59-34zm-8 174c40 0 45-34 45-75s-6-73-45-74c-42 0-51 32-51 76 0 43 10 73 51 73" id="L"/><path fill="#333" d="M117-194c89-4 53 116 60 194h-32v-121c0-31-8-49-39-48C34-167 62-67 57 0H25l-1-190h30c1 10-1 24 2 32 11-22 29-35 61-36" id="M"/><path fill="#333" d="M100-194c63 0 86 42 84 106H49c0 40 14 67 53 68 26 1 43-12 49-29l28 8c-11 28-37 45-77 45C44 4 14-33 15-96c1-61 26-98 85-98zm52 81c6-60-76-77-97-28-3 7-6 17-6 28h103" id="N"/><path fill="#333" d="M59-47c-2 24 18 29 38 22v24C64 9 27 4 27-40v-127H5v-23h24l9-43h21v43h35v23H59v120" id="O"/><path fill="#333" d="M18-27v-27l151-64-151-65v-27l175 74v36" id="P"/><g id="c"><use transform="matrix(0.07407407407407407,0,0,0.07407407407407407,0,0)" xlink:href="#H"/><use transform="matrix(0.07407407407407407,0,0,0.07407407407407407,15.555555555555555,0)" xlink:href="#H"/><use transform="matrix(0.07407407407407407,0,0,0.07407407407407407,31.11111111111111,0)" xlink:href="#I"/><use transform="matrix(0.07407407407407407,0,0,0.07407407407407407,44.44444444444444,0)" xlink:href="#J"/><use transform="matrix(0.07407407407407407,0,0,0.07407407407407407,59.25925925925925,0)" xlink:href="#K"/><use transform="matrix(0.07407407407407407,0,0,0.07407407407407407,81.40740740740739,0)" xlink:href="#L"/><use transform="matrix(0.07407407407407407,0,0,0.07407407407407407,96.2222222222222,0)" xlink:href="#J"/><use transform="matrix(0.07407407407407407,0,0,0.07407407407407407,111.03703703703701,0)" xlink:href="#M"/><use transform="matrix(0.07407407407407407,0,0,0.07407407407407407,125.8518518518518,0)" xlink:href="#N"/><use transform="matrix(0.07407407407407407,0,0,0.07407407407407407,140.66666666666663,0)" xlink:href="#M"/><use transform="matrix(0.07407407407407407,0,0,0.07407407407407407,155.48148148148144,0)" xlink:href="#O"/><use transform="matrix(0.07407407407407407,0,0,0.07407407407407407,162.88888888888886,0)" xlink:href="#P"/><use transform="matrix(0.07407407407407407,0,0,0.07407407407407407,178.4444444444444,0)" xlink:href="#P"/></g><path fill="#333" d="M147 0H94L2-248h55l64 206c17-72 42-137 63-206h54" id="Q"/><path fill="#333" d="M110-194c64 0 96 36 96 99 0 64-35 99-97 99-61 0-95-36-95-99 0-62 34-99 96-99zm-1 164c35 0 45-28 45-65 0-40-10-65-43-65-34 0-45 26-45 65 0 36 10 65 43 65" id="R"/><path fill="#333" d="M115-3C79 11 28 4 28-45v-112H4v-33h27l15-45h31v45h36v33H77v99c-1 23 16 31 38 25v30" id="S"/><path fill="#333" d="M185-48c-13 30-37 53-82 52C43 2 14-33 14-96s30-98 90-98c62 0 83 45 84 108H66c0 31 8 55 39 56 18 0 30-7 34-22zm-45-69c5-46-57-63-70-21-2 6-4 13-4 21h74" id="T"/><path fill="#333" d="M182-130c37 4 62 22 62 59C244 23 116-4 24 0v-248c84 5 203-23 205 63 0 31-19 50-47 55zM76-148c40-3 101 13 101-30 0-44-60-28-101-31v61zm0 110c48-3 116 14 116-37 0-48-69-32-116-35v72" id="U"/><path fill="#333" d="M137-138c1-29-70-34-71-4 15 46 118 7 119 86 1 83-164 76-172 9l43-7c4 19 20 25 44 25 33 8 57-30 24-41C81-84 22-81 20-136c-2-80 154-74 161-7" id="V"/><path fill="#333" d="M135-150c-39-12-60 13-60 57V0H25l-1-190h47c2 13-1 29 3 40 6-28 27-53 61-41v41" id="W"/><path fill="#333" d="M133-34C117-15 103 5 69 4 32 3 11-16 11-54c-1-60 55-63 116-61 1-26-3-47-28-47-18 1-26 9-28 27l-52-2c7-38 36-58 82-57s74 22 75 68l1 82c-1 14 12 18 25 15v27c-30 8-71 5-69-32zm-48 3c29 0 43-24 42-57-32 0-66-3-65 30 0 17 8 27 23 27" id="X"/><path fill="#333" d="M135-194c53 0 70 44 70 98 0 56-19 98-73 100-31 1-45-17-59-34 3 33 2 69 2 105H25l-1-265h48c2 10 0 23 3 31 11-24 29-35 60-35zM114-30c33 0 39-31 40-66 0-38-9-64-40-64-56 0-55 130 0 130" id="Y"/><g id="d"><use transform="matrix(0.08641975308641973,0,0,0.08641975308641973,0,0)" xlink:href="#Q"/><use transform="matrix(0.08641975308641973,0,0,0.08641975308641973,18.407407407407405,0)" xlink:href="#R"/><use transform="matrix(0.08641975308641973,0,0,0.08641975308641973,37.33333333333333,0)" xlink:href="#S"/><use transform="matrix(0.08641975308641973,0,0,0.08641975308641973,47.61728395061727,0)" xlink:href="#T"/><use transform="matrix(0.08641975308641973,0,0,0.08641975308641973,64.90123456790123,0)" xlink:href="#F"/><use transform="matrix(0.08641975308641973,0,0,0.08641975308641973,89.09876543209876,0)" xlink:href="#U"/><use transform="matrix(0.08641975308641973,0,0,0.08641975308641973,111.48148148148145,0)" xlink:href="#R"/><use transform="matrix(0.08641975308641973,0,0,0.08641975308641973,130.4074074074074,0)" xlink:href="#R"/><use transform="matrix(0.08641975308641973,0,0,0.08641975308641973,149.33333333333331,0)" xlink:href="#S"/><use transform="matrix(0.08641975308641973,0,0,0.08641975308641973,159.61728395061726,0)" xlink:href="#V"/><use transform="matrix(0.08641975308641973,0,0,0.08641975308641973,176.9012345679012,0)" xlink:href="#S"/><use transform="matrix(0.08641975308641973,0,0,0.08641975308641973,187.18518518518513,0)" xlink:href="#W"/><use transform="matrix(0.08641975308641973,0,0,0.08641975308641973,199.28395061728392,0)" xlink:href="#X"/><use transform="matrix(0.08641975308641973,0,0,0.08641975308641973,216.56790123456784,0)" xlink:href="#Y"/><use transform="matrix(0.08641975308641973,0,0,0.08641975308641973,235.49382716049377,0)" xlink:href="#Y"/><use transform="matrix(0.08641975308641973,0,0,0.08641975308641973,254.4197530864197,0)" xlink:href="#T"/><use transform="matrix(0.08641975308641973,0,0,0.08641975308641973,271.70370370370364,0)" xlink:href="#W"/></g><path fill="#333" d="M88-194c31-1 46 15 58 34l-1-101h50l1 261h-48c-2-10 0-23-3-31C134-8 116 4 84 4 32 4 16-41 15-95c0-56 19-97 73-99zm17 164c33 0 40-30 41-66 1-37-9-64-41-64s-38 30-39 65c0 43 13 65 39 65" id="Z"/><path fill="#333" d="M85 4C-2 5 27-109 22-190h50c7 57-23 150 33 157 60-5 35-97 40-157h50l1 190h-47c-2-12 1-28-3-38-12 25-28 42-61 42" id="aa"/><path fill="#333" d="M190-63c-7 42-38 67-86 67-59 0-84-38-90-98-12-110 154-137 174-36l-49 2c-2-19-15-32-35-32-30 0-35 28-38 64-6 74 65 87 74 30" id="ab"/><g id="e"><use transform="matrix(0.08641975308641973,0,0,0.08641975308641973,0,0)" xlink:href="#A"/><use transform="matrix(0.08641975308641973,0,0,0.08641975308641973,20.740740740740737,0)" xlink:href="#W"/><use transform="matrix(0.08641975308641973,0,0,0.08641975308641973,32.8395061728395,0)" xlink:href="#R"/><use transform="matrix(0.08641975308641973,0,0,0.08641975308641973,51.76543209876541,0)" xlink:href="#Z"/><use transform="matrix(0.08641975308641973,0,0,0.08641975308641973,70.69135802469134,0)" xlink:href="#aa"/><use transform="matrix(0.08641975308641973,0,0,0.08641975308641973,89.61728395061726,0)" xlink:href="#ab"/><use transform="matrix(0.08641975308641973,0,0,0.08641975308641973,106.90123456790121,0)" xlink:href="#S"/><use transform="matrix(0.08641975308641973,0,0,0.08641975308641973,117.18518518518516,0)" xlink:href="#B"/><use transform="matrix(0.08641975308641973,0,0,0.08641975308641973,139.56790123456787,0)" xlink:href="#U"/><use transform="matrix(0.08641975308641973,0,0,0.08641975308641973,161.95061728395058,0)" xlink:href="#R"/><use transform="matrix(0.08641975308641973,0,0,0.08641975308641973,180.8765432098765,0)" xlink:href="#R"/><use transform="matrix(0.08641975308641973,0,0,0.08641975308641973,199.80246913580243,0)" xlink:href="#S"/><use transform="matrix(0.08641975308641973,0,0,0.08641975308641973,210.08641975308637,0)" xlink:href="#V"/><use transform="matrix(0.08641975308641973,0,0,0.08641975308641973,227.37037037037032,0)" xlink:href="#S"/><use transform="matrix(0.08641975308641973,0,0,0.08641975308641973,237.65432098765427,0)" xlink:href="#W"/><use transform="matrix(0.08641975308641973,0,0,0.08641975308641973,249.75308641975303,0)" xlink:href="#X"/><use transform="matrix(0.08641975308641973,0,0,0.08641975308641973,267.03703703703695,0)" xlink:href="#Y"/><use transform="matrix(0.08641975308641973,0,0,0.08641975308641973,285.9629629629629,0)" xlink:href="#Y"/><use transform="matrix(0.08641975308641973,0,0,0.08641975308641973,304.8888888888888,0)" xlink:href="#T"/><use transform="matrix(0.08641975308641973,0,0,0.08641975308641973,322.17283950617275,0)" xlink:href="#W"/></g><g id="f"><use transform="matrix(0.10493827160493824,0,0,0.10493827160493824,0,0)" xlink:href="#D"/><use transform="matrix(0.10493827160493824,0,0,0.10493827160493824,27.179012345679002,0)" xlink:href="#E"/><use transform="matrix(0.10493827160493824,0,0,0.10493827160493824,58.555555555555536,0)" xlink:href="#F"/><use transform="matrix(0.10493827160493824,0,0,0.10493827160493824,87.93827160493825,0)" xlink:href="#A"/></g><g id="g"><use transform="matrix(0.08641975308641973,0,0,0.08641975308641973,0,0)" xlink:href="#E"/><use transform="matrix(0.08641975308641973,0,0,0.08641975308641973,25.8395061728395,0)" xlink:href="#T"/><use transform="matrix(0.08641975308641973,0,0,0.08641975308641973,43.12345679012344,0)" xlink:href="#V"/><use transform="matrix(0.08641975308641973,0,0,0.08641975308641973,60.4074074074074,0)" xlink:href="#V"/><use transform="matrix(0.08641975308641973,0,0,0.08641975308641973,77.69135802469134,0)" xlink:href="#X"/><use transform="matrix(0.08641975308641973,0,0,0.08641975308641973,94.97530864197529,0)" xlink:href="#G"/><use transform="matrix(0.08641975308641973,0,0,0.08641975308641973,113.90123456790121,0)" xlink:href="#T"/></g><path fill="#333" d="M147 0L96-86 75-71V0H25v-261h50v150l67-79h53l-66 74L201 0h-54" id="ac"/><g id="h"><use transform="matrix(0.08641975308641973,0,0,0.08641975308641973,0,0)" xlink:href="#U"/><use transform="matrix(0.08641975308641973,0,0,0.08641975308641973,22.38271604938271,0)" xlink:href="#W"/><use transform="matrix(0.08641975308641973,0,0,0.08641975308641973,34.481481481481474,0)" xlink:href="#R"/><use transform="matrix(0.08641975308641973,0,0,0.08641975308641973,53.40740740740738,0)" xlink:href="#ac"/><use transform="matrix(0.08641975308641973,0,0,0.08641975308641973,70.69135802469134,0)" xlink:href="#T"/><use transform="matrix(0.08641975308641973,0,0,0.08641975308641973,87.97530864197529,0)" xlink:href="#W"/></g><path fill="#333" d="M123 10C108 53 80 86 19 72V37c35 8 53-11 59-39L3-190h52l48 148c12-52 28-100 44-148h51" id="ad"/><g id="i"><use transform="matrix(0.08641975308641973,0,0,0.08641975308641973,0,0)" xlink:href="#Q"/><use transform="matrix(0.08641975308641973,0,0,0.08641975308641973,18.407407407407405,0)" xlink:href="#R"/><use transform="matrix(0.08641975308641973,0,0,0.08641975308641973,37.33333333333333,0)" xlink:href="#S"/><use transform="matrix(0.08641975308641973,0,0,0.08641975308641973,47.61728395061727,0)" xlink:href="#T"/><use transform="matrix(0.08641975308641973,0,0,0.08641975308641973,64.90123456790123,0)" xlink:href="#F"/><use transform="matrix(0.08641975308641973,0,0,0.08641975308641973,89.09876543209876,0)" xlink:href="#aa"/><use transform="matrix(0.08641975308641973,0,0,0.08641975308641973,108.02469135802468,0)" xlink:href="#T"/><use transform="matrix(0.08641975308641973,0,0,0.08641975308641973,125.30864197530863,0)" xlink:href="#W"/><use transform="matrix(0.08641975308641973,0,0,0.08641975308641973,137.4074074074074,0)" xlink:href="#ad"/></g><path fill="#333" d="M220-157c-53 9-28 100-34 157h-49v-107c1-27-5-49-29-50C55-147 81-57 75 0H25l-1-190h47c2 12-1 28 3 38 10-53 101-56 108 0 13-22 24-43 59-42 82 1 51 116 57 194h-49v-107c-1-25-5-48-29-50" id="ae"/><path fill="#333" d="M135-194c87-1 58 113 63 194h-50c-7-57 23-157-34-157-59 0-34 97-39 157H25l-1-190h47c2 12-1 28 3 38 12-26 28-41 61-42" id="af"/><g id="j"><use transform="matrix(0.08641975308641973,0,0,0.08641975308641973,0,0)" xlink:href="#Q"/><use transform="matrix(0.08641975308641973,0,0,0.08641975308641973,18.407407407407405,0)" xlink:href="#R"/><use transform="matrix(0.08641975308641973,0,0,0.08641975308641973,37.33333333333333,0)" xlink:href="#S"/><use transform="matrix(0.08641975308641973,0,0,0.08641975308641973,47.61728395061727,0)" xlink:href="#T"/><use transform="matrix(0.08641975308641973,0,0,0.08641975308641973,64.90123456790123,0)" xlink:href="#B"/><use transform="matrix(0.08641975308641973,0,0,0.08641975308641973,87.28395061728394,0)" xlink:href="#R"/><use transform="matrix(0.08641975308641973,0,0,0.08641975308641973,106.20987654320986,0)" xlink:href="#ae"/><use transform="matrix(0.08641975308641973,0,0,0.08641975308641973,133.86419753086417,0)" xlink:href="#ae"/><use transform="matrix(0.08641975308641973,0,0,0.08641975308641973,161.51851851851848,0)" xlink:href="#X"/><use transform="matrix(0.08641975308641973,0,0,0.08641975308641973,178.80246913580243,0)" xlink:href="#af"/><use transform="matrix(0.08641975308641973,0,0,0.08641975308641973,197.72839506172835,0)" xlink:href="#Z"/></g><path fill="#333" d="M128 0H69L1-190h53L99-40l48-150h52" id="ag"/><path fill="#333" d="M25-224v-37h50v37H25zM25 0v-190h50V0H25" id="ah"/><path fill="#333" d="M231 0h-52l-39-155L100 0H48L-1-190h46L77-45c9-52 24-97 36-145h53l37 145 32-145h46" id="ai"/><g id="k"><use transform="matrix(0.08641975308641973,0,0,0.08641975308641973,0,0)" xlink:href="#z"/><use transform="matrix(0.08641975308641973,0,0,0.08641975308641973,22.38271604938271,0)" xlink:href="#T"/><use transform="matrix(0.08641975308641973,0,0,0.08641975308641973,39.66666666666666,0)" xlink:href="#ag"/><use transform="matrix(0.08641975308641973,0,0,0.08641975308641973,56.950617283950606,0)" xlink:href="#ah"/><use transform="matrix(0.08641975308641973,0,0,0.08641975308641973,65.59259259259258,0)" xlink:href="#T"/><use transform="matrix(0.08641975308641973,0,0,0.08641975308641973,82.87654320987653,0)" xlink:href="#ai"/><use transform="matrix(0.08641975308641973,0,0,0.08641975308641973,107.07407407407405,0)" xlink:href="#F"/><use transform="matrix(0.08641975308641973,0,0,0.08641975308641973,131.27160493827157,0)" xlink:href="#aa"/><use transform="matrix(0.08641975308641973,0,0,0.08641975308641973,150.1975308641975,0)" xlink:href="#T"/><use transform="matrix(0.08641975308641973,0,0,0.08641975308641973,167.48148148148144,0)" xlink:href="#W"/><use transform="matrix(0.08641975308641973,0,0,0.08641975308641973,179.5802469135802,0)" xlink:href="#ad"/></g><g id="l"><use transform="matrix(0.08641975308641973,0,0,0.08641975308641973,0,0)" xlink:href="#z"/><use transform="matrix(0.08641975308641973,0,0,0.08641975308641973,22.38271604938271,0)" xlink:href="#T"/><use transform="matrix(0.08641975308641973,0,0,0.08641975308641973,39.66666666666666,0)" xlink:href="#ag"/><use transform="matrix(0.08641975308641973,0,0,0.08641975308641973,56.950617283950606,0)" xlink:href="#ah"/><use transform="matrix(0.08641975308641973,0,0,0.08641975308641973,65.59259259259258,0)" xlink:href="#T"/><use transform="matrix(0.08641975308641973,0,0,0.08641975308641973,82.87654320987653,0)" xlink:href="#ai"/><use transform="matrix(0.08641975308641973,0,0,0.08641975308641973,107.07407407407405,0)" xlink:href="#B"/><use transform="matrix(0.08641975308641973,0,0,0.08641975308641973,129.45679012345676,0)" xlink:href="#R"/><use transform="matrix(0.08641975308641973,0,0,0.08641975308641973,148.38271604938268,0)" xlink:href="#ae"/><use transform="matrix(0.08641975308641973,0,0,0.08641975308641973,176.037037037037,0)" xlink:href="#ae"/><use transform="matrix(0.08641975308641973,0,0,0.08641975308641973,203.69135802469134,0)" xlink:href="#X"/><use transform="matrix(0.08641975308641973,0,0,0.08641975308641973,220.9753086419753,0)" xlink:href="#af"/><use transform="matrix(0.08641975308641973,0,0,0.08641975308641973,239.9012345679012,0)" xlink:href="#Z"/></g><g id="m"><use transform="matrix(0.08641975308641973,0,0,0.08641975308641973,0,0)" xlink:href="#A"/><use transform="matrix(0.08641975308641973,0,0,0.08641975308641973,20.740740740740737,0)" xlink:href="#W"/><use transform="matrix(0.08641975308641973,0,0,0.08641975308641973,32.8395061728395,0)" xlink:href="#R"/><use transform="matrix(0.08641975308641973,0,0,0.08641975308641973,51.76543209876541,0)" xlink:href="#Z"/><use transform="matrix(0.08641975308641973,0,0,0.08641975308641973,70.69135802469134,0)" xlink:href="#aa"/><use transform="matrix(0.08641975308641973,0,0,0.08641975308641973,89.61728395061726,0)" xlink:href="#ab"/><use transform="matrix(0.08641975308641973,0,0,0.08641975308641973,106.90123456790121,0)" xlink:href="#S"/><use transform="matrix(0.08641975308641973,0,0,0.08641975308641973,117.18518518518516,0)" xlink:href="#F"/><use transform="matrix(0.08641975308641973,0,0,0.08641975308641973,141.38271604938268,0)" xlink:href="#aa"/><use transform="matrix(0.08641975308641973,0,0,0.08641975308641973,160.3086419753086,0)" xlink:href="#T"/><use transform="matrix(0.08641975308641973,0,0,0.08641975308641973,177.59259259259255,0)" xlink:href="#W"/><use transform="matrix(0.08641975308641973,0,0,0.08641975308641973,189.6913580246913,0)" xlink:href="#ad"/></g><g id="n"><use transform="matrix(0.08641975308641973,0,0,0.08641975308641973,0,0)" xlink:href="#A"/><use transform="matrix(0.08641975308641973,0,0,0.08641975308641973,20.740740740740737,0)" xlink:href="#W"/><use transform="matrix(0.08641975308641973,0,0,0.08641975308641973,32.8395061728395,0)" xlink:href="#R"/><use transform="matrix(0.08641975308641973,0,0,0.08641975308641973,51.76543209876541,0)" xlink:href="#Z"/><use transform="matrix(0.08641975308641973,0,0,0.08641975308641973,70.69135802469134,0)" xlink:href="#aa"/><use transform="matrix(0.08641975308641973,0,0,0.08641975308641973,89.61728395061726,0)" xlink:href="#ab"/><use transform="matrix(0.08641975308641973,0,0,0.08641975308641973,106.90123456790121,0)" xlink:href="#S"/><use transform="matrix(0.08641975308641973,0,0,0.08641975308641973,117.18518518518516,0)" xlink:href="#B"/><use transform="matrix(0.08641975308641973,0,0,0.08641975308641973,139.56790123456787,0)" xlink:href="#R"/><use transform="matrix(0.08641975308641973,0,0,0.08641975308641973,158.4938271604938,0)" xlink:href="#ae"/><use transform="matrix(0.08641975308641973,0,0,0.08641975308641973,186.1481481481481,0)" xlink:href="#ae"/><use transform="matrix(0.08641975308641973,0,0,0.08641975308641973,213.80246913580243,0)" xlink:href="#X"/><use transform="matrix(0.08641975308641973,0,0,0.08641975308641973,231.08641975308637,0)" xlink:href="#af"/><use transform="matrix(0.08641975308641973,0,0,0.08641975308641973,250.0123456790123,0)" xlink:href="#Z"/></g><g id="o"><use transform="matrix(0.08641975308641973,0,0,0.08641975308641973,0,0)" xlink:href="#A"/><use transform="matrix(0.08641975308641973,0,0,0.08641975308641973,20.740740740740737,0)" xlink:href="#W"/><use transform="matrix(0.08641975308641973,0,0,0.08641975308641973,32.8395061728395,0)" xlink:href="#R"/><use transform="matrix(0.08641975308641973,0,0,0.08641975308641973,51.76543209876541,0)" xlink:href="#Z"/><use transform="matrix(0.08641975308641973,0,0,0.08641975308641973,70.69135802469134,0)" xlink:href="#aa"/><use transform="matrix(0.08641975308641973,0,0,0.08641975308641973,89.61728395061726,0)" xlink:href="#ab"/><use transform="matrix(0.08641975308641973,0,0,0.08641975308641973,106.90123456790121,0)" xlink:href="#S"/><use transform="matrix(0.08641975308641973,0,0,0.08641975308641973,117.18518518518516,0)" xlink:href="#F"/><use transform="matrix(0.08641975308641973,0,0,0.08641975308641973,141.38271604938268,0)" xlink:href="#U"/><use transform="matrix(0.08641975308641973,0,0,0.08641975308641973,163.7654320987654,0)" xlink:href="#R"/><use transform="matrix(0.08641975308641973,0,0,0.08641975308641973,182.6913580246913,0)" xlink:href="#R"/><use transform="matrix(0.08641975308641973,0,0,0.08641975308641973,201.61728395061724,0)" xlink:href="#S"/><use transform="matrix(0.08641975308641973,0,0,0.08641975308641973,211.90123456790118,0)" xlink:href="#V"/><use transform="matrix(0.08641975308641973,0,0,0.08641975308641973,229.18518518518513,0)" xlink:href="#S"/><use transform="matrix(0.08641975308641973,0,0,0.08641975308641973,239.46913580246908,0)" xlink:href="#W"/><use transform="matrix(0.08641975308641973,0,0,0.08641975308641973,251.56790123456784,0)" xlink:href="#X"/><use transform="matrix(0.08641975308641973,0,0,0.08641975308641973,268.8518518518518,0)" xlink:href="#Y"/><use transform="matrix(0.08641975308641973,0,0,0.08641975308641973,287.7777777777777,0)" xlink:href="#Y"/><use transform="matrix(0.08641975308641973,0,0,0.08641975308641973,306.70370370370364,0)" xlink:href="#T"/><use transform="matrix(0.08641975308641973,0,0,0.08641975308641973,323.9876543209876,0)" xlink:href="#W"/></g><g id="p"><use transform="matrix(0.08641975308641973,0,0,0.08641975308641973,0,0)" xlink:href="#z"/><use transform="matrix(0.08641975308641973,0,0,0.08641975308641973,22.38271604938271,0)" xlink:href="#T"/><use transform="matrix(0.08641975308641973,0,0,0.08641975308641973,39.66666666666666,0)" xlink:href="#ag"/><use transform="matrix(0.08641975308641973,0,0,0.08641975308641973,56.950617283950606,0)" xlink:href="#ah"/><use transform="matrix(0.08641975308641973,0,0,0.08641975308641973,65.59259259259258,0)" xlink:href="#T"/><use transform="matrix(0.08641975308641973,0,0,0.08641975308641973,82.87654320987653,0)" xlink:href="#ai"/><use transform="matrix(0.08641975308641973,0,0,0.08641975308641973,107.07407407407405,0)" xlink:href="#F"/><use transform="matrix(0.08641975308641973,0,0,0.08641975308641973,131.27160493827157,0)" xlink:href="#U"/><use transform="matrix(0.08641975308641973,0,0,0.08641975308641973,153.65432098765427,0)" xlink:href="#R"/><use transform="matrix(0.08641975308641973,0,0,0.08641975308641973,172.5802469135802,0)" xlink:href="#R"/><use transform="matrix(0.08641975308641973,0,0,0.08641975308641973,191.50617283950612,0)" xlink:href="#S"/><use transform="matrix(0.08641975308641973,0,0,0.08641975308641973,201.79012345679007,0)" xlink:href="#V"/><use transform="matrix(0.08641975308641973,0,0,0.08641975308641973,219.07407407407402,0)" xlink:href="#S"/><use transform="matrix(0.08641975308641973,0,0,0.08641975308641973,229.35802469135797,0)" xlink:href="#W"/><use transform="matrix(0.08641975308641973,0,0,0.08641975308641973,241.45679012345673,0)" xlink:href="#X"/><use transform="matrix(0.08641975308641973,0,0,0.08641975308641973,258.74074074074065,0)" xlink:href="#Y"/><use transform="matrix(0.08641975308641973,0,0,0.08641975308641973,277.6666666666666,0)" xlink:href="#Y"/><use transform="matrix(0.08641975308641973,0,0,0.08641975308641973,296.5925925925925,0)" xlink:href="#T"/><use transform="matrix(0.08641975308641973,0,0,0.08641975308641973,313.87654320987644,0)" xlink:href="#W"/></g><g id="q"><use transform="matrix(0.08641975308641973,0,0,0.08641975308641973,0,0)" xlink:href="#z"/><use transform="matrix(0.08641975308641973,0,0,0.08641975308641973,22.38271604938271,0)" xlink:href="#T"/><use transform="matrix(0.08641975308641973,0,0,0.08641975308641973,39.66666666666666,0)" xlink:href="#ag"/><use transform="matrix(0.08641975308641973,0,0,0.08641975308641973,56.950617283950606,0)" xlink:href="#ah"/><use transform="matrix(0.08641975308641973,0,0,0.08641975308641973,65.59259259259258,0)" xlink:href="#T"/><use transform="matrix(0.08641975308641973,0,0,0.08641975308641973,82.87654320987653,0)" xlink:href="#ai"/><use transform="matrix(0.08641975308641973,0,0,0.08641975308641973,107.07407407407405,0)" xlink:href="#B"/><use transform="matrix(0.08641975308641973,0,0,0.08641975308641973,129.45679012345676,0)" xlink:href="#U"/><use transform="matrix(0.08641975308641973,0,0,0.08641975308641973,151.83950617283946,0)" xlink:href="#R"/><use transform="matrix(0.08641975308641973,0,0,0.08641975308641973,170.7654320987654,0)" xlink:href="#R"/><use transform="matrix(0.08641975308641973,0,0,0.08641975308641973,189.6913580246913,0)" xlink:href="#S"/><use transform="matrix(0.08641975308641973,0,0,0.08641975308641973,199.97530864197526,0)" xlink:href="#V"/><use transform="matrix(0.08641975308641973,0,0,0.08641975308641973,217.2592592592592,0)" xlink:href="#S"/><use transform="matrix(0.08641975308641973,0,0,0.08641975308641973,227.54320987654316,0)" xlink:href="#W"/><use transform="matrix(0.08641975308641973,0,0,0.08641975308641973,239.64197530864192,0)" xlink:href="#X"/><use transform="matrix(0.08641975308641973,0,0,0.08641975308641973,256.92592592592587,0)" xlink:href="#Y"/><use transform="matrix(0.08641975308641973,0,0,0.08641975308641973,275.8518518518518,0)" xlink:href="#Y"/><use transform="matrix(0.08641975308641973,0,0,0.08641975308641973,294.7777777777777,0)" xlink:href="#T"/><use transform="matrix(0.08641975308641973,0,0,0.08641975308641973,312.06172839506166,0)" xlink:href="#W"/></g><g id="r"><use transform="matrix(0.08641975308641973,0,0,0.08641975308641973,0,0)" xlink:href="#Q"/><use transform="matrix(0.08641975308641973,0,0,0.08641975308641973,18.407407407407405,0)" xlink:href="#R"/><use transform="matrix(0.08641975308641973,0,0,0.08641975308641973,37.33333333333333,0)" xlink:href="#S"/><use transform="matrix(0.08641975308641973,0,0,0.08641975308641973,47.61728395061727,0)" xlink:href="#T"/><use transform="matrix(0.08641975308641973,0,0,0.08641975308641973,64.90123456790123,0)" xlink:href="#B"/><use transform="matrix(0.08641975308641973,0,0,0.08641975308641973,87.28395061728394,0)" xlink:href="#U"/><use transform="matrix(0.08641975308641973,0,0,0.08641975308641973,109.66666666666664,0)" xlink:href="#R"/><use transform="matrix(0.08641975308641973,0,0,0.08641975308641973,128.59259259259255,0)" xlink:href="#R"/><use transform="matrix(0.08641975308641973,0,0,0.08641975308641973,147.51851851851848,0)" xlink:href="#S"/><use transform="matrix(0.08641975308641973,0,0,0.08641975308641973,157.80246913580243,0)" xlink:href="#V"/><use transform="matrix(0.08641975308641973,0,0,0.08641975308641973,175.08641975308637,0)" xlink:href="#S"/><use transform="matrix(0.08641975308641973,0,0,0.08641975308641973,185.37037037037032,0)" xlink:href="#W"/><use transform="matrix(0.08641975308641973,0,0,0.08641975308641973,197.46913580246908,0)" xlink:href="#X"/><use transform="matrix(0.08641975308641973,0,0,0.08641975308641973,214.75308641975303,0)" xlink:href="#Y"/><use transform="matrix(0.08641975308641973,0,0,0.08641975308641973,233.67901234567896,0)" xlink:href="#Y"/><use transform="matrix(0.08641975308641973,0,0,0.08641975308641973,252.60493827160488,0)" xlink:href="#T"/><use transform="matrix(0.08641975308641973,0,0,0.08641975308641973,269.8888888888888,0)" xlink:href="#W"/></g><path fill="#333" d="M24 0v-248h195v40H76v63h132v40H76v65h150V0H24" id="aj"/><path fill="#333" d="M169-182c-1-43-94-46-97-3 18 66 151 10 154 114 3 95-165 93-204 36-6-8-10-19-12-30l50-8c3 46 112 56 116 5-17-69-150-10-154-114-4-87 153-88 188-35 5 8 8 18 10 28" id="ak"/><g id="s"><use transform="matrix(0.08641975308641973,0,0,0.08641975308641973,0,0)" xlink:href="#aj"/><use transform="matrix(0.08641975308641973,0,0,0.08641975308641973,20.740740740740737,0)" xlink:href="#ag"/><use transform="matrix(0.08641975308641973,0,0,0.08641975308641973,38.02469135802468,0)" xlink:href="#T"/><use transform="matrix(0.08641975308641973,0,0,0.08641975308641973,55.30864197530863,0)" xlink:href="#af"/><use transform="matrix(0.08641975308641973,0,0,0.08641975308641973,74.23456790123456,0)" xlink:href="#S"/><use transform="matrix(0.08641975308641973,0,0,0.08641975308641973,84.5185185185185,0)" xlink:href="#ak"/><use transform="matrix(0.08641975308641973,0,0,0.08641975308641973,105.25925925925924,0)" xlink:href="#R"/><use transform="matrix(0.08641975308641973,0,0,0.08641975308641973,124.18518518518516,0)" xlink:href="#aa"/><use transform="matrix(0.08641975308641973,0,0,0.08641975308641973,143.1111111111111,0)" xlink:href="#W"/><use transform="matrix(0.08641975308641973,0,0,0.08641975308641973,155.20987654320984,0)" xlink:href="#ab"/><use transform="matrix(0.08641975308641973,0,0,0.08641975308641973,172.4938271604938,0)" xlink:href="#ah"/><use transform="matrix(0.08641975308641973,0,0,0.08641975308641973,181.13580246913577,0)" xlink:href="#af"/><use transform="matrix(0.08641975308641973,0,0,0.08641975308641973,200.0617283950617,0)" xlink:href="#G"/></g><g id="t"><use transform="matrix(0.07407407407407407,0,0,0.07407407407407407,0,0)" xlink:href="#H"/><use transform="matrix(0.07407407407407407,0,0,0.07407407407407407,15.555555555555555,0)" xlink:href="#H"/><use transform="matrix(0.07407407407407407,0,0,0.07407407407407407,31.11111111111111,0)" xlink:href="#I"/><use transform="matrix(0.07407407407407407,0,0,0.07407407407407407,44.44444444444444,0)" xlink:href="#J"/><use transform="matrix(0.07407407407407407,0,0,0.07407407407407407,59.25925925925925,0)" xlink:href="#K"/><use transform="matrix(0.07407407407407407,0,0,0.07407407407407407,81.40740740740739,0)" xlink:href="#L"/><use transform="matrix(0.07407407407407407,0,0,0.07407407407407407,96.2222222222222,0)" xlink:href="#J"/><use transform="matrix(0.07407407407407407,0,0,0.07407407407407407,111.03703703703701,0)" xlink:href="#M"/><use transform="matrix(0.07407407407407407,0,0,0.07407407407407407,125.8518518518518,0)" xlink:href="#N"/><use transform="matrix(0.07407407407407407,0,0,0.07407407407407407,140.66666666666663,0)" xlink:href="#M"/><use transform="matrix(0.07407407407407407,0,0,0.07407407407407407,155.48148148148144,0)" xlink:href="#O"/><use transform="matrix(0.07407407407407407,0,0,0.07407407407407407,162.88888888888886,0)" xlink:href="#P"/><use transform="matrix(0.07407407407407407,0,0,0.07407407407407407,178.4444444444444,0)" xlink:href="#P"/></g><path fill="#333" d="M24 0v-248h52v208h133V0H24" id="al"/><path fill="#333" d="M25 0v-261h50V0H25" id="am"/><g id="u"><use transform="matrix(0.08641975308641973,0,0,0.08641975308641973,0,0)" xlink:href="#al"/><use transform="matrix(0.08641975308641973,0,0,0.08641975308641973,18.92592592592592,0)" xlink:href="#R"/><use transform="matrix(0.08641975308641973,0,0,0.08641975308641973,37.85185185185184,0)" xlink:href="#X"/><use transform="matrix(0.08641975308641973,0,0,0.08641975308641973,55.13580246913578,0)" xlink:href="#Z"/><use transform="matrix(0.08641975308641973,0,0,0.08641975308641973,74.0617283950617,0)" xlink:href="#U"/><use transform="matrix(0.08641975308641973,0,0,0.08641975308641973,96.44444444444443,0)" xlink:href="#X"/><use transform="matrix(0.08641975308641973,0,0,0.08641975308641973,113.72839506172836,0)" xlink:href="#am"/><use transform="matrix(0.08641975308641973,0,0,0.08641975308641973,122.37037037037034,0)" xlink:href="#X"/><use transform="matrix(0.08641975308641973,0,0,0.08641975308641973,139.65432098765427,0)" xlink:href="#af"/><use transform="matrix(0.08641975308641973,0,0,0.08641975308641973,158.5802469135802,0)" xlink:href="#ab"/><use transform="matrix(0.08641975308641973,0,0,0.08641975308641973,175.86419753086415,0)" xlink:href="#T"/><use transform="matrix(0.08641975308641973,0,0,0.08641975308641973,193.1481481481481,0)" xlink:href="#W"/></g><path fill="#333" d="M24-248c120-7 223 5 221 122C244-46 201 0 124 0H24v-248zM76-40c74 7 117-18 117-86 0-67-45-88-117-82v168" id="an"/><g id="v"><use transform="matrix(0.08641975308641973,0,0,0.08641975308641973,0,0)" xlink:href="#an"/><use transform="matrix(0.08641975308641973,0,0,0.08641975308641973,22.38271604938271,0)" xlink:href="#ah"/><use transform="matrix(0.08641975308641973,0,0,0.08641975308641973,31.024691358024686,0)" xlink:href="#V"/><use transform="matrix(0.08641975308641973,0,0,0.08641975308641973,48.30864197530863,0)" xlink:href="#ab"/><use transform="matrix(0.08641975308641973,0,0,0.08641975308641973,65.59259259259258,0)" xlink:href="#R"/><use transform="matrix(0.08641975308641973,0,0,0.08641975308641973,84.5185185185185,0)" xlink:href="#ag"/><use transform="matrix(0.08641975308641973,0,0,0.08641975308641973,101.80246913580245,0)" xlink:href="#T"/><use transform="matrix(0.08641975308641973,0,0,0.08641975308641973,119.08641975308639,0)" xlink:href="#W"/><use transform="matrix(0.08641975308641973,0,0,0.08641975308641973,131.18518518518516,0)" xlink:href="#ad"/></g><g id="w"><use transform="matrix(0.08641975308641973,0,0,0.08641975308641973,0,0)" xlink:href="#ak"/><use transform="matrix(0.08641975308641973,0,0,0.08641975308641973,20.740740740740737,0)" xlink:href="#ad"/><use transform="matrix(0.08641975308641973,0,0,0.08641975308641973,38.02469135802468,0)" xlink:href="#V"/><use transform="matrix(0.08641975308641973,0,0,0.08641975308641973,55.30864197530863,0)" xlink:href="#S"/><use transform="matrix(0.08641975308641973,0,0,0.08641975308641973,65.59259259259258,0)" xlink:href="#T"/><use transform="matrix(0.08641975308641973,0,0,0.08641975308641973,82.87654320987653,0)" xlink:href="#ae"/></g><path fill="#333" d="M186 0v-106H76V0H24v-248h52v99h110v-99h50V0h-50" id="ao"/><path fill="#333" d="M136-208V0H84v-208H4v-40h212v40h-80" id="ap"/><g id="x"><use transform="matrix(0.10493827160493824,0,0,0.10493827160493824,0,0)" xlink:href="#ao"/><use transform="matrix(0.10493827160493824,0,0,0.10493827160493824,27.179012345679002,0)" xlink:href="#ap"/><use transform="matrix(0.10493827160493824,0,0,0.10493827160493824,50.16049382716048,0)" xlink:href="#ap"/><use transform="matrix(0.10493827160493824,0,0,0.10493827160493824,73.14197530864195,0)" xlink:href="#A"/></g><path fill="#333" d="M144 0l-44-69L55 0H2l70-98-66-92h53l41 62 40-62h54l-67 91 71 99h-54" id="aq"/><path fill="#333" d="M132-34C116-15 102 5 68 4 31 3 10-16 10-54c-1-60 55-63 116-61 1-26-3-47-28-47-18 1-26 9-28 27l-52-2c7-38 36-58 82-57s74 22 75 68l1 82c-1 14 12 18 25 15v27c-30 8-71 5-69-32zm-48 3c29 0 43-24 42-57-32 0-66-3-65 30 0 17 8 27 23 27zm82-228c-2 27-9 52-40 51-27-1-66-46-73 0H29c0-29 9-51 39-51 28 0 66 44 74 0h24" id="ar"/><g id="y"><use transform="matrix(0.10493827160493824,0,0,0.10493827160493824,0,0)" xlink:href="#B"/><use transform="matrix(0.10493827160493824,0,0,0.10493827160493824,27.179012345679002,0)" xlink:href="#R"/><use transform="matrix(0.10493827160493824,0,0,0.10493827160493824,50.16049382716048,0)" xlink:href="#af"/><use transform="matrix(0.10493827160493824,0,0,0.10493827160493824,73.14197530864195,0)" xlink:href="#T"/><use transform="matrix(0.10493827160493824,0,0,0.10493827160493824,94.12962962962959,0)" xlink:href="#aq"/><use transform="matrix(0.10493827160493824,0,0,0.10493827160493824,115.11728395061722,0)" xlink:href="#ar"/><use transform="matrix(0.10493827160493824,0,0,0.10493827160493824,136.10493827160488,0)" xlink:href="#R"/></g></defs></g></svg>